<?xml version="1.0" encoding="iso-8859-1"?>
<!-- Generator: Adobe Illustrator 16.0.0, SVG Export Plug-In . SVG Version: 6.00 Build 0)  -->
<!DOCTYPE svg PUBLIC "-//W3C//DTD SVG 1.1//EN" "http://www.w3.org/Graphics/SVG/1.1/DTD/svg11.dtd">
<svg version="1.1" id="Capa_1" xmlns="http://www.w3.org/2000/svg" xmlns:xlink="http://www.w3.org/1999/xlink" x="0px" y="0px"
	 width="44.008px" height="44.008px" viewBox="0 0 44.008 44.008" style="enable-background:new 0 0 44.008 44.008;"
	 xml:space="preserve">
<g>
	<g>
		<path d="M21.934,23.918c-0.25-1.5-4-0.688-5.875-2c-1.359-0.952-2.945-3.346-3.717-4.591c0.002,0.02,0,0.038,0.002,0.056
			c0.022,0.295,0.021,0.595,0.086,0.875c0.082,0.575,0.225,1.106,0.363,1.562c0.119,0.464,0.301,0.822,0.391,1.091
			c0.103,0.265,0.16,0.416,0.16,0.416s-0.1-0.127-0.271-0.351c-0.163-0.229-0.446-0.534-0.702-0.954
			c-0.271-0.412-0.58-0.905-0.847-1.482c-0.055-0.1-0.098-0.209-0.143-0.316c-0.008,0.064-0.023,0.126-0.027,0.192
			c-0.008,0.291-0.047,0.589-0.01,0.884c0.023,0.295,0.021,0.595,0.086,0.875c0.082,0.575,0.226,1.106,0.363,1.562
			c0.119,0.464,0.301,0.821,0.391,1.091c0.103,0.266,0.16,0.416,0.16,0.416s-0.1-0.127-0.271-0.352
			c-0.164-0.23-0.447-0.535-0.703-0.955c-0.271-0.412-0.58-0.905-0.846-1.482c-0.156-0.278-0.252-0.596-0.375-0.914
			c-0.136-0.314-0.199-0.66-0.291-1.003C9.786,18.22,9.739,17.89,9.71,17.56c-0.01,0.04-0.024,0.072-0.031,0.113
			c-0.082,0.383-0.104,0.823-0.061,1.278c0.033,0.226,0.045,0.463,0.113,0.688C9.79,19.864,9.829,20.1,9.919,20.31
			c0.146,0.438,0.33,0.836,0.506,1.176c0.162,0.349,0.354,0.604,0.465,0.805c0.119,0.194,0.188,0.307,0.188,0.307
			s-0.103-0.08-0.281-0.219c-0.174-0.146-0.455-0.326-0.738-0.604c-0.297-0.268-0.639-0.593-0.961-0.994
			c-0.18-0.189-0.317-0.419-0.479-0.646c-0.17-0.223-0.289-0.482-0.431-0.737c-0.035-0.069-0.061-0.147-0.092-0.218
			c-0.594,0.854-1.104,1.792-1.521,2.806c-0.103,0.251-0.468,0.677-0.789,1.052c-0.853,0.99-3.256,4.271-0.631,3.944
			c1.059-0.133,0.979,0.257,0.979,0.257l-0.025,0.651c-0.082,1.82-0.141,3.138,0.604,4.871c0.176,0.41,0.678,1.049,1.371,0.834
			c0.061-0.02,0.914-0.131,0.897,0.119c0.22,0.281-1.379,0.771-1.045,1.238c1.258,1.76,3.396,3.605,5.711,4.365
			c0.111,0.037,0.224,0.062,0.334,0.096c0.086,1.699-0.887,2.686-1.061,2.844c-0.313,0.275-0.424,0.715-0.275,1.104
			c0.146,0.389,0.521,0.646,0.937,0.646h4.75c0.512,0,1.104-0.393,0.994-0.893c-0.32-1.502,0.084-2.936,0.741-4.168
			c0.713-0.283,1.398-0.641,2.049-1.064c2.078-1.356,3.783-3.404,4.879-5.869C24.335,30.996,22.166,25.311,21.934,23.918z"/>
		<path d="M29.021,12.805c-2.463-3.847-2.438-8.571-0.34-12.291c-0.51,0.223-1.014,0.476-1.496,0.784
			c-4.968,3.181-6.416,9.786-3.234,14.754c3.183,4.967,9.783,6.417,14.754,3.234c0.48-0.31,0.925-0.661,1.341-1.03
			C35.787,18.606,31.484,16.651,29.021,12.805z"/>
		<polygon points="20.432,2.74 21.17,2.123 22.096,2.38 21.736,1.489 22.268,0.687 21.309,0.753 20.711,0 20.477,0.933 
			19.576,1.269 20.391,1.779 		"/>
		<polygon points="18.248,7.049 19.113,6.06 20.42,6.212 19.746,5.084 20.293,3.89 19.012,4.181 18.045,3.291 17.928,4.6 
			16.781,5.244 17.99,5.761 		"/>
	</g>
</g>
<g>
</g>
<g>
</g>
<g>
</g>
<g>
</g>
<g>
</g>
<g>
</g>
<g>
</g>
<g>
</g>
<g>
</g>
<g>
</g>
<g>
</g>
<g>
</g>
<g>
</g>
<g>
</g>
<g>
</g>
</svg>
