<?xml version="1.0" encoding="iso-8859-1"?>
<!-- Generator: Adobe Illustrator 16.0.0, SVG Export Plug-In . SVG Version: 6.00 Build 0)  -->
<!DOCTYPE svg PUBLIC "-//W3C//DTD SVG 1.1//EN" "http://www.w3.org/Graphics/SVG/1.1/DTD/svg11.dtd">
<svg version="1.1" id="Capa_1" xmlns="http://www.w3.org/2000/svg" xmlns:xlink="http://www.w3.org/1999/xlink" x="0px" y="0px"
	 width="45.892px" height="45.892px" viewBox="0 0 45.892 45.892" style="enable-background:new 0 0 45.892 45.892;"
	 xml:space="preserve">
<g>
	<g>
		<path d="M25.51,16.032c-1.797,0-3.497,0.69-4.786,1.942c2.547,2.536,5.847,5.818,7.513,7.478c0.586,0.583,1.533,0.583,2.119,0
			c0.526-0.522,1.219-1.211,1.994-1.983c0.014-0.157,0.027-0.313,0.029-0.473c0.024-1.838-0.667-3.574-1.946-4.886
			C29.128,16.769,27.38,16.032,25.51,16.032z"/>
		<path d="M41.32,2.494c-3.318-3.318-8.695-3.326-12.023-0.023c-3.328-3.302-8.703-3.294-12.023,0.023
			c-2.55,2.551-3.136,6.315-1.775,9.434c2.747-2.507,6.276-3.896,10.011-3.896c4.046,0,7.83,1.596,10.653,4.493
			c1.246,1.278,2.196,2.731,2.89,4.272c1.295-1.29,2.212-2.203,2.267-2.256C44.645,11.215,44.645,5.82,41.32,2.494z"/>
		<path d="M25.51,10.032c-3.375,0-6.564,1.297-8.983,3.654c-3.882,3.784-4.851,9.438-2.89,14.165l-9.354,7.525
			c-1.297,1.043-2.094,2.585-2.194,4.247c-0.1,1.662,0.504,3.289,1.667,4.481c1.163,1.193,2.774,1.84,4.438,1.783
			c1.664-0.058,3.227-0.814,4.303-2.084l7.759-9.149c1.632,0.731,3.411,1.125,5.257,1.125c3.375,0,6.566-1.297,8.984-3.653
			c5.083-4.953,5.188-13.12,0.234-18.204C32.287,11.413,29.012,10.032,25.51,10.032z M31.704,29.261
			c-1.667,1.625-3.866,2.519-6.192,2.519c-2.414,0-4.67-0.952-6.355-2.68c-3.415-3.504-3.342-9.134,0.162-12.548
			c1.667-1.624,3.866-2.519,6.192-2.519c2.415,0,4.672,0.952,6.356,2.68C35.282,20.217,35.208,25.846,31.704,29.261z"/>
	</g>
</g>
<g>
</g>
<g>
</g>
<g>
</g>
<g>
</g>
<g>
</g>
<g>
</g>
<g>
</g>
<g>
</g>
<g>
</g>
<g>
</g>
<g>
</g>
<g>
</g>
<g>
</g>
<g>
</g>
<g>
</g>
</svg>
