<?xml version="1.0" encoding="iso-8859-1"?>
<!-- Generator: Adobe Illustrator 16.0.0, SVG Export Plug-In . SVG Version: 6.00 Build 0)  -->
<!DOCTYPE svg PUBLIC "-//W3C//DTD SVG 1.1//EN" "http://www.w3.org/Graphics/SVG/1.1/DTD/svg11.dtd">
<svg version="1.1" id="Capa_1" xmlns="http://www.w3.org/2000/svg" xmlns:xlink="http://www.w3.org/1999/xlink" x="0px" y="0px"
	 width="208.25px" height="208.25px" viewBox="0 0 208.25 208.25" style="enable-background:new 0 0 208.25 208.25;"
	 xml:space="preserve">
<g>
	<g>
		<path d="M97.102,77.997c14.413,14.404,14.413,37.858,0,52.263l3.632,3.63c16.406-16.409,16.406-43.104,0-59.513L97.102,77.997z"/>
		<path d="M92.353,82.752l-3.632,3.626c9.785,9.788,9.785,25.711,0,35.5l3.632,3.629C104.13,113.709,104.13,94.538,92.353,82.752z"
			/>
		<path d="M64.602,46.705h-50.25C6.434,46.705,0,53.139,0,61.053V147.2c0,7.909,6.434,14.346,14.352,14.346h50.25
			c7.914,0,14.354-6.437,14.354-14.346V61.053C78.956,53.139,72.51,46.705,64.602,46.705z M44.505,150.758H34.439v-10.061h10.066
			V150.758z M71.777,133.493H7.173V61.053c0-3.951,3.221-7.176,7.179-7.176h50.25c3.957,0,7.185,3.219,7.185,7.176v72.439H71.777z"
			/>
		<path d="M208.083,90.572c-2.565-24.719-30.145-24.335-43.444-12.418c-13.305-11.922-40.891-12.3-43.455,12.418
			c-3.299,31.809,43.455,47.431,43.455,47.431S211.393,122.38,208.083,90.572z"/>
	</g>
</g>
<g>
</g>
<g>
</g>
<g>
</g>
<g>
</g>
<g>
</g>
<g>
</g>
<g>
</g>
<g>
</g>
<g>
</g>
<g>
</g>
<g>
</g>
<g>
</g>
<g>
</g>
<g>
</g>
<g>
</g>
</svg>
