<?xml version="1.0" encoding="UTF-8" standalone="no"?>
<!-- Generator: Adobe Illustrator 16.0.0, SVG Export Plug-In . SVG Version: 6.00 Build 0)  -->

<svg
   xmlns:dc="http://purl.org/dc/elements/1.1/"
   xmlns:cc="http://creativecommons.org/ns#"
   xmlns:rdf="http://www.w3.org/1999/02/22-rdf-syntax-ns#"
   xmlns:svg="http://www.w3.org/2000/svg"
   xmlns="http://www.w3.org/2000/svg"
   xmlns:sodipodi="http://sodipodi.sourceforge.net/DTD/sodipodi-0.dtd"
   xmlns:inkscape="http://www.inkscape.org/namespaces/inkscape"
   version="1.1"
   id="Capa_1"
   x="0px"
   y="0px"
   width="591.879px"
   height="591.88px"
   viewBox="0 0 591.879 591.88"
   style="enable-background:new 0 0 591.879 591.88;"
   xml:space="preserve"
   sodipodi:docname="pic14.svg"
   inkscape:version="0.92.1 r15371"><metadata
     id="metadata4525"><rdf:RDF><cc:Work
         rdf:about=""><dc:format>image/svg+xml</dc:format><dc:type
           rdf:resource="http://purl.org/dc/dcmitype/StillImage" /></cc:Work></rdf:RDF></metadata><defs
     id="defs4523"><linearGradient
       id="SVGID_1_"
       y2="220.34"
       gradientUnits="userSpaceOnUse"
       x2="484.81"
       gradientTransform="matrix(1.0739064,0,-0.00521617,-1,17.65502,596.42951)"
       y1="220.34"
       x1="347.81"><stop
         id="stop2988"
         style="stop-color:#BFAF9B"
         offset="0" /><stop
         id="stop2990"
         style="stop-color:#B7A58E"
         offset=".2698" /><stop
         id="stop2992"
         style="stop-color:#AF9B80"
         offset=".489" /><stop
         id="stop2994"
         style="stop-color:#A59279"
         offset=".5332" /><stop
         id="stop2996"
         style="stop-color:#776956"
         offset=".7552" /><stop
         id="stop2998"
         style="stop-color:#594E3F"
         offset=".9168" /><stop
         id="stop3000"
         style="stop-color:#4D4336"
         offset="1" /></linearGradient><linearGradient
       id="SVGID_2_"
       y2="279.79001"
       gradientUnits="userSpaceOnUse"
       x2="416.22"
       gradientTransform="matrix(1.0739064,0,-0.00521617,-1,17.65502,596.42951)"
       y1="286.12"
       x1="416.22"><stop
         id="stop3005"
         style="stop-color:#EBD7BC"
         offset="0" /><stop
         id="stop3007"
         style="stop-color:#E1C9AB"
         offset=".2698" /><stop
         id="stop3009"
         style="stop-color:#D5BC9A"
         offset=".489" /><stop
         id="stop3011"
         style="stop-color:#B49E81"
         offset=".6966" /><stop
         id="stop3013"
         style="stop-color:#97856C"
         offset=".8968" /><stop
         id="stop3015"
         style="stop-color:#8D7B64"
         offset="1" /></linearGradient><linearGradient
       id="SVGID_3_"
       y2="343.51999"
       gradientUnits="userSpaceOnUse"
       x2="489.22"
       gradientTransform="matrix(1.0739064,0,-0.00521617,-1,17.65502,596.42951)"
       y1="343.51999"
       x1="342.54999"><stop
         id="stop3020"
         style="stop-color:#D1BFA9"
         offset="0" /><stop
         id="stop3022"
         style="stop-color:#D5C4AD"
         offset=".0886" /><stop
         id="stop3024"
         style="stop-color:#E2D1B8"
         offset=".1926" /><stop
         id="stop3026"
         style="stop-color:#F2E2C8"
         offset=".2857" /><stop
         id="stop3028"
         style="stop-color:#DECBB0"
         offset=".342" /><stop
         id="stop3030"
         style="stop-color:#C6B094"
         offset=".4297" /><stop
         id="stop3032"
         style="stop-color:#BDA78A"
         offset=".489" /><stop
         id="stop3034"
         style="stop-color:#B5A085"
         offset=".5257" /><stop
         id="stop3036"
         style="stop-color:#887863"
         offset=".7513" /><stop
         id="stop3038"
         style="stop-color:#6B5E4D"
         offset=".9154" /><stop
         id="stop3040"
         style="stop-color:#605444"
         offset="1" /></linearGradient><linearGradient
       id="SVGID_4_"
       y2="229.34"
       gradientUnits="userSpaceOnUse"
       x2="490.23001"
       gradientTransform="matrix(1.0739064,0,-0.00521617,-1,17.65502,596.42951)"
       y1="229.34"
       x1="343.34"><stop
         id="stop3045"
         style="stop-color:#D1BFA9"
         offset="0" /><stop
         id="stop3047"
         style="stop-color:#D5C4AD"
         offset=".0886" /><stop
         id="stop3049"
         style="stop-color:#E2D1B8"
         offset=".1926" /><stop
         id="stop3051"
         style="stop-color:#F2E2C8"
         offset=".2857" /><stop
         id="stop3053"
         style="stop-color:#DECBB0"
         offset=".342" /><stop
         id="stop3055"
         style="stop-color:#C6B094"
         offset=".4297" /><stop
         id="stop3057"
         style="stop-color:#BDA78A"
         offset=".489" /><stop
         id="stop3059"
         style="stop-color:#B5A085"
         offset=".5257" /><stop
         id="stop3061"
         style="stop-color:#887863"
         offset=".7513" /><stop
         id="stop3063"
         style="stop-color:#6B5E4D"
         offset=".9154" /><stop
         id="stop3065"
         style="stop-color:#605444"
         offset="1" /></linearGradient><linearGradient
       id="SVGID_5_"
       y2="252.62"
       gradientUnits="userSpaceOnUse"
       x2="489.54999"
       gradientTransform="matrix(1.0739064,0,-0.00521617,-1,17.65502,596.42951)"
       y1="252.62"
       x1="342.89001"><stop
         id="stop3070"
         style="stop-color:#E8DAC5"
         offset="0" /><stop
         id="stop3072"
         style="stop-color:#DCCBB3"
         offset=".1883" /><stop
         id="stop3074"
         style="stop-color:#C4AD8F"
         offset=".489" /><stop
         id="stop3076"
         style="stop-color:#A39076"
         offset=".6914" /><stop
         id="stop3078"
         style="stop-color:#877661"
         offset=".8947" /><stop
         id="stop3080"
         style="stop-color:#7C6D58"
         offset="1" /></linearGradient><linearGradient
       id="SVGID_6_"
       y2="252.63"
       gradientUnits="userSpaceOnUse"
       x2="355.39001"
       gradientTransform="matrix(1.0739064,0,-0.00521617,-1,17.65502,596.42951)"
       y1="252.63"
       x1="477.04999"><stop
         id="stop3085"
         style="stop-color:#EBD7BC"
         offset="0" /><stop
         id="stop3087"
         style="stop-color:#E1C9AB"
         offset=".2698" /><stop
         id="stop3089"
         style="stop-color:#D5BC9A"
         offset=".489" /><stop
         id="stop3091"
         style="stop-color:#B49E81"
         offset=".6966" /><stop
         id="stop3093"
         style="stop-color:#97856C"
         offset=".8968" /><stop
         id="stop3095"
         style="stop-color:#8D7B64"
         offset="1" /></linearGradient><linearGradient
       id="SVGID_7_"
       y2="252.62"
       gradientUnits="userSpaceOnUse"
       x2="472.67999"
       gradientTransform="matrix(1.0739064,0,-0.00521617,-1,17.65502,596.42951)"
       y1="252.62"
       x1="359.76001"><stop
         id="stop3100"
         style="stop-color:#EBD7BC"
         offset="0" /><stop
         id="stop3102"
         style="stop-color:#E1C9AB"
         offset=".2698" /><stop
         id="stop3104"
         style="stop-color:#D5BC9A"
         offset=".489" /><stop
         id="stop3106"
         style="stop-color:#B49E81"
         offset=".6966" /><stop
         id="stop3108"
         style="stop-color:#97856C"
         offset=".8968" /><stop
         id="stop3110"
         style="stop-color:#8D7B64"
         offset="1" /></linearGradient><radialGradient
       id="SVGID_8_"
       gradientUnits="userSpaceOnUse"
       cy="266.87"
       cx="390.48001"
       gradientTransform="matrix(1.0739064,0,-0.00521617,-1,17.65502,596.42951)"
       r="67.857002"><stop
         id="stop3115"
         style="stop-color:#F08A51"
         offset=".2692" /><stop
         id="stop3117"
         style="stop-color:#BB5435"
         offset="1" /></radialGradient><linearGradient
       id="SVGID_9_"
       y2="223.03999"
       gradientUnits="userSpaceOnUse"
       x2="402.82001"
       gradientTransform="matrix(1.0739064,0,-0.00521617,-1,17.65502,596.42951)"
       y1="223.03999"
       x1="429.79999"><stop
         id="stop3124"
         style="stop-color:#EBD7BC"
         offset=".0495" /><stop
         id="stop3126"
         style="stop-color:#E1C9AB"
         offset=".292" /><stop
         id="stop3128"
         style="stop-color:#D5BC9A"
         offset=".489" /><stop
         id="stop3130"
         style="stop-color:#B49E81"
         offset=".6966" /><stop
         id="stop3132"
         style="stop-color:#97856C"
         offset=".8968" /><stop
         id="stop3134"
         style="stop-color:#8D7B64"
         offset="1" /></linearGradient><linearGradient
       id="SVGID_10_"
       y2="221.89999"
       gradientUnits="userSpaceOnUse"
       x2="429.89001"
       gradientTransform="matrix(1.0739064,0,-0.00521617,-1,17.65502,596.42951)"
       y1="221.89999"
       x1="402.29001"><stop
         id="stop3141"
         style="stop-color:#655D4D"
         offset="0" /><stop
         id="stop3143"
         style="stop-color:#C8B7A2"
         offset="1" /></linearGradient><linearGradient
       id="SVGID_11_"
       y2="321.87"
       gradientUnits="userSpaceOnUse"
       x2="489.22"
       gradientTransform="matrix(1.0739064,0,-0.00521617,-1,17.65502,596.42951)"
       y1="321.87"
       x1="342.54999"><stop
         id="stop3148"
         style="stop-color:#D8C6AE"
         offset="0" /><stop
         id="stop3150"
         style="stop-color:#CEB99E"
         offset=".2698" /><stop
         id="stop3152"
         style="stop-color:#C4AD8F"
         offset=".489" /><stop
         id="stop3154"
         style="stop-color:#A39076"
         offset=".6914" /><stop
         id="stop3156"
         style="stop-color:#877661"
         offset=".8947" /><stop
         id="stop3158"
         style="stop-color:#7C6D58"
         offset="1" /></linearGradient><linearGradient
       id="SVGID_12_"
       y2="320.67001"
       gradientUnits="userSpaceOnUse"
       x2="350.82001"
       gradientTransform="matrix(1.0739064,0,-0.00521617,-1,17.65502,596.42951)"
       y1="320.67001"
       x1="480.95001"><stop
         id="stop3165"
         style="stop-color:#EBD7BC"
         offset="0" /><stop
         id="stop3167"
         style="stop-color:#E1C9AB"
         offset=".2698" /><stop
         id="stop3169"
         style="stop-color:#D5BC9A"
         offset=".489" /><stop
         id="stop3171"
         style="stop-color:#B49E81"
         offset=".6966" /><stop
         id="stop3173"
         style="stop-color:#97856C"
         offset=".8968" /><stop
         id="stop3175"
         style="stop-color:#8D7B64"
         offset="1" /></linearGradient><radialGradient
       id="SVGID_13_"
       gradientUnits="userSpaceOnUse"
       cy="337.37"
       cx="380.98001"
       gradientTransform="matrix(1.0739064,0,-0.00521617,-1,17.65502,596.42951)"
       r="83.216003"><stop
         id="stop3180"
         style="stop-color:#FFFFFF"
         offset="0" /><stop
         id="stop3182"
         style="stop-color:#BEE2E6"
         offset="1" /></radialGradient><radialGradient
       id="SVGID_14_"
       gradientUnits="userSpaceOnUse"
       cy="318.76001"
       cx="445.62"
       gradientTransform="matrix(1.0058468,0.355,0.37636019,-0.9349,-51.731045,477.05951)"
       r="67.855003"><stop
         id="stop3191"
         style="stop-color:#F6AF81"
         offset=".2692" /><stop
         id="stop3193"
         style="stop-color:#D1805B"
         offset=".8736" /><stop
         id="stop3195"
         style="stop-color:#DF9769"
         offset="1" /></radialGradient><radialGradient
       id="SVGID_15_"
       gradientUnits="userSpaceOnUse"
       cy="322.89001"
       cx="427.35999"
       gradientTransform="matrix(1.0058468,0.355,0.37636019,-0.9349,-51.731045,477.05951)"
       r="95.054001"><stop
         id="stop3200"
         style="stop-color:#F7B98F"
         offset=".2692" /><stop
         id="stop3202"
         style="stop-color:#D78965"
         offset="1" /></radialGradient></defs><sodipodi:namedview
     pagecolor="#ffffff"
     bordercolor="#666666"
     borderopacity="1"
     objecttolerance="10"
     gridtolerance="10"
     guidetolerance="10"
     inkscape:pageopacity="0"
     inkscape:pageshadow="2"
     inkscape:window-width="1158"
     inkscape:window-height="826"
     id="namedview4521"
     showgrid="false"
     inkscape:zoom="0.78225444"
     inkscape:cx="295.93951"
     inkscape:cy="244.80575"
     inkscape:window-x="307"
     inkscape:window-y="50"
     inkscape:window-maximized="0"
     inkscape:current-layer="Capa_1" /><g
     id="g4490" /><g
     id="g4492" /><g
     id="g4494" /><g
     id="g4496" /><g
     id="g4498" /><g
     id="g4500" /><g
     id="g4502" /><g
     id="g4504" /><g
     id="g4506" /><g
     id="g4508" /><g
     id="g4510" /><g
     id="g4512" /><g
     id="g4514" /><g
     id="g4516" /><g
     id="g4518" /><g
     id="layer1"
     transform="matrix(6.4543274,0,0,10.348773,-27.417616,-10077.906)"
     style="stroke-width:0.12235735"><path
       style="fill-rule:evenodd;stroke-width:0.12235735"
       inkscape:connector-curvature="0"
       id="path13689"
       d="m 68.551,975.56 -7.9316,1.7437 0.45001,1.2909 6.1874,-1.0659 -4.2745,2.8095 2.0251,4.6124 -23.678,17.269 -5.684,-16.189 0.33781,-0.0534 c 0.06,-0.018 0.12,-0.0186 0.1686,-0.0564 l 1.9687,-1.6312 c 0.048,-0.0372 0.078,-0.0546 0.06,-0.11251 -0.024,-0.0576 -0.054,-0.16872 -0.1128,-0.16872 l -0.78722,0.0564 c -0.03,0 -0.03,0.0366 -0.06,0.0564 l -1.4622,1.1812 -3.4315,0.61874 -0.1686,-0.17149 c -0.036,-0.0306 -0.1218,-0.018 -0.1686,0 -0.1482,0.045 -0.27001,0.0348 -0.39421,0.0564 -0.048,0.018 -0.078,0.0522 -0.1122,0.0564 -0.06,0.018 -0.0948,0.0622 -0.1128,0.1125 -0.012,0.054 0.024,0.1329 0.06,0.16866 l 0.56282,0.3938 c 0.0846,0.066 0.177,0.1359 0.28141,0.1125 l 1.9123,-0.45001 2.4217,6.7386 -4.2751,5.2312 -0.33721,-0.056 -0.22501,-0.5061 -0.61862,-0.1125 -0.33781,-0.5064 h -0.61862 l -0.33721,-0.506 -0.56282,0.056 -0.39361,-0.5062 -0.61862,0.056 -0.39421,-0.45 -0.56222,0.056 -0.45001,-0.3939 -0.56222,0.1097 -0.45001,-0.3938 -0.56282,0.1716 -0.50641,-0.3936 -0.56222,0.225 -0.50641,-0.2813 -0.56222,0.1688 -0.50641,-0.225 -0.50641,0.225 -0.56222,-0.225 -0.56282,0.225 -0.50581,-0.1688 -0.50641,0.2813 -0.56282,-0.225 -0.50581,0.3936 -0.56282,-0.1716 -0.45001,0.3938 -0.61862,-0.1097 -0.39361,0.3939 -0.56282,-0.056 -0.39361,0.45 -0.67502,-0.056 -0.33721,0.45 h -0.56282 l -0.39361,0.5062 h -0.61862 l -0.28141,0.5063 -0.67502,0.1125 -0.22501,0.5061 -0.56222,0.1125 -0.28141,0.5626 -0.56222,0.1687 -0.22501,0.4501 -0.56282,0.225 -0.1686,0.56243 -0.56282,0.2249 -0.1686,0.6187 -0.56222,0.1688 -0.06,0.6187 -0.56282,0.3375 v 0.5625 l -0.56222,0.3375 v 0.5625 l -0.50641,0.3375 v 0.6188 l -0.50641,0.3936 0.06,0.5626 -0.39361,0.3938 0.06,0.6186 -0.39361,0.45 0.1092,0.6188 -0.39361,0.3937 0.1716,0.6188 -0.39361,0.45 0.22501,0.5625 -0.33721,0.5062 0.22501,0.5624 -0.28141,0.5064 0.28141,0.5062 -0.28141,0.5624 0.28141,0.5064 -0.22501,0.5624 0.33721,0.5625 -0.22501,0.5062 0.39361,0.45 -0.1716,0.6188 0.39361,0.45 -0.1092,0.5625 0.39361,0.45 -0.06,0.6187 0.39361,0.3938 -0.06,0.6186 0.50641,0.3375 v 0.6188 l 0.50641,0.3376 v 0.6186 l 0.56222,0.225 v 0.675 l 0.56282,0.2813 0.06,0.6187 0.56222,0.225 0.1686,0.5625 0.56282,0.225 0.1686,0.5624 0.56282,0.1689 0.22501,0.6187 0.56222,0.1125 0.28141,0.5063 0.56222,0.1125 0.22501,0.5625 0.61862,0.056 0.33781,0.5063 0.61862,0.056 0.39361,0.45 h 0.50641 l 0.39361,0.4499 0.61862,-0.056 0.39421,0.45 0.56222,-0.056 0.45001,0.3939 0.56282,-0.1125 0.50581,0.3937 0.50641,-0.1688 0.56222,0.3937 0.56282,-0.2249 0.50641,0.3374 0.50581,-0.2249 0.56282,0.3374 0.50641,-0.3374 0.56222,0.3374 0.50641,-0.3374 0.56222,0.2249 0.45001,-0.3374 0.61862,0.2249 0.50641,-0.3374 0.56282,0.1125 0.45001,-0.3937 0.56222,0.1125 0.45001,-0.3939 0.56222,0.053 0.39421,-0.45 0.61862,0.056 0.39361,-0.4499 h 0.56282 l 0.33721,-0.45 0.61862,-0.056 0.33781,-0.5063 0.61862,-0.053 0.22501,-0.5625 0.61862,-0.1125 0.22501,-0.5063 0.61862,-0.1125 0.22501,-0.5625 0.50641,-0.2249 0.1686,-0.5626 0.56282,-0.225 0.1686,-0.5624 0.61862,-0.225 0.06,-0.6187 0.50641,-0.2813 0.06,-0.6187 0.56222,-0.2813 v -0.5625 l 0.50641,-0.3937 -0.054,-0.5625 0.50581,-0.3938 -0.06,-0.5625 0.45001,-0.45 -0.054,-0.5625 0.39361,-0.5062 -0.1686,-0.5063 0.39361,-0.5061 -0.1686,-0.5625 0.39361,-0.5063 -0.22501,-0.5062 0.33721,-0.5063 c 0.74042,1.8896 2.5735,3.2062 4.7251,3.2062 0.90722,0 1.7904,-0.2082 2.5285,-0.6188 0.048,-0.052 0.0942,-0.082 0.1572,-0.098 -0.054,0.035 -0.1026,0.068 -0.1572,0.098 -0.0678,0.081 -0.1158,0.2127 -0.1158,0.3376 v 0.5063 c 0,0.25 0.144,0.45 0.39361,0.45 h 3.8815 c 0.24961,0 0.45001,-0.1998 0.45001,-0.45 v -0.5063 c 0,-0.2496 -0.1998,-0.4501 -0.45001,-0.4501 h -3.8815 c -0.048,0 -0.0798,0 -0.1152,0.011 0.1584,-0.1066 0.30301,-0.2279 0.45601,-0.3488 l 0.22501,0.225 h 1.5186 l -1.0122,-1.0125 c 0.71762,-0.876 1.1808,-1.9851 1.1808,-3.2061 0,-1.3376 -0.50461,-2.5806 -1.35,-3.4875 l 18.956,-19.79996 3.7687,8.4936 h -0.22501 l -0.33781,0.5063 h -0.56222 l -0.33781,0.5625 -0.67502,0.056 -0.22501,0.5063 -0.61862,0.056 -0.22501,0.5625 -0.56222,0.225 -0.22501,0.5063 -0.61862,0.225 -0.1692,0.50616 -0.50581,0.225 -0.1722,0.6188 -0.56222,0.225 -0.06,0.6159 -0.56282,0.2841 -0.054,0.5625 -0.50641,0.3375 -0.06,0.5624 -0.45001,0.3937 v 0.5598 l -0.50581,0.3937 0.054,0.6215 -0.45001,0.3909 0.1098,0.5626 -0.45001,0.45 0.1716,0.5624 -0.39661,0.45 0.1716,0.5625 -0.39361,0.5063 0.22501,0.5624 -0.33781,0.5063 0.1686,0.5625 -0.22501,0.5062 0.22501,0.5063 -0.22501,0.5625 0.22501,0.5625 -0.1686,0.5062 0.33781,0.5063 -0.22501,0.5624 0.33721,0.5063 -0.1152,0.5625 0.39361,0.45 -0.1686,0.6187 0.45001,0.3937 -0.1098,0.5626 0.45001,0.3937 -0.054,0.675 0.50581,0.3375 v 0.5625 l 0.45001,0.3937 0.06,0.6187 0.50641,0.2813 0.054,0.675 0.56282,0.1687 0.06,0.6188 0.56222,0.2812 0.1692,0.5625 0.50581,0.225 0.1722,0.5625 0.61862,0.1716 0.22501,0.5596 0.56222,0.1717 0.22501,0.5624 0.61862,0.053 0.22501,0.5625 h 0.61922 l 0.33721,0.5625 h 0.56282 l 0.39361,0.5062 h 0.56222 l 0.39361,0.5062 0.56282,-0.053 0.45001,0.3937 0.55922,-0.056 0.45001,0.3937 0.56582,-0.1125 0.45001,0.3938 0.55922,-0.1688 0.56582,0.3938 0.55922,-0.225 0.45001,0.3375 0.56582,-0.225 0.55922,0.2812 0.50641,-0.2812 0.50581,0.2812 0.56282,-0.2812 0.56222,0.225 0.45001,-0.3375 0.56282,0.225 0.50581,-0.3938 0.61922,0.1688 0.45001,-0.3938 0.56222,0.1125 0.39361,-0.3937 0.61922,0.056 0.39361,-0.3937 0.56222,0.053 0.39361,-0.5062 h 0.61922 l 0.39361,-0.5062 h 0.56222 l 0.28141,-0.5625 h 0.61862 l 0.28141,-0.5625 0.61862,-0.053 0.22501,-0.5624 0.56282,-0.1717 0.22501,-0.5596 0.56222,-0.1716 0.1686,-0.5625 0.56282,-0.225 0.1716,-0.5625 0.56222,-0.2812 0.054,-0.6188 0.56222,-0.1687 0.06,-0.6188 0.56282,-0.3375 v -0.6187 l 0.45001,-0.3937 -0.06,-0.5063 0.56222,-0.3937 -0.1092,-0.6188 0.50641,-0.4499 -0.1128,-0.5063 0.45001,-0.45 -0.1122,-0.5625 0.39361,-0.5062 -0.22501,-0.5063 0.39361,-0.5625 -0.1686,-0.5624 0.33721,-0.5063 -0.28081,-0.5062 0.33721,-0.5625 -0.28141,-0.5063 0.28141,-0.5625 -0.33721,-0.5062 0.28081,-0.5625 -0.33721,-0.45 0.1686,-0.6187 -0.39361,-0.45 0.22501,-0.6188 -0.39361,-0.45 0.1122,-0.5624 -0.45001,-0.45 0.1128,-0.5626 -0.50641,-0.3909 0.1092,-0.6215 -0.50581,-0.3937 V 1004.3 l -0.45001,-0.3937 v -0.5624 l -0.56282,-0.3375 -0.054,-0.5625 -0.56282,-0.2841 -0.06,-0.6159 -0.50581,-0.225 -0.22501,-0.6188 -0.50641,-0.225 -0.22501,-0.50616 -0.56282,-0.1716 -0.22501,-0.5624 -0.56222,-0.2251 -0.22501,-0.5625 -0.61862,-0.053 -0.28141,-0.5063 -0.61862,-0.056 -0.28141,-0.5625 h -0.56222 l -0.39421,-0.5064 -0.61862,0.056 -0.39361,-0.5091 -0.56222,0.056 -0.39421,-0.45 -0.56222,0.056 -0.45001,-0.3938 -0.56282,0.1125 -0.45001,-0.3937 -0.61862,0.225 -0.50581,-0.3938 -0.50641,0.1688 -0.50641,-0.3375 -0.56222,0.2812 -0.56282,-0.3375 -0.45001,0.2813 -0.56222,-0.2813 -0.56282,0.3375 -0.56222,-0.2812 -0.45001,0.3375 -0.56282,-0.1688 -0.50581,0.3938 -0.61922,-0.225 -0.39361,0.3937 -0.61862,-0.1125 -0.39361,0.45 -0.61862,-0.1125 -0.39421,0.45 -6.806,-15.353 3.4873,-2.1936 0.28141,-0.61886 z m -31.187,5.8274 c -3.1177,0.008 -6.7328,1.2134 -9.2564,0.27 -0.36061,0.018 -0.61862,0.31243 -0.61862,0.67496 v 1.17 c 0,0.045 0.024,0.0827 0.06,0.10969 1.1526,0.8993 2.2891,1.5176 3.6001,2.0812 0.85922,0.19657 2.1583,-0.74048 2.7559,-1.0687 1.248,-0.45679 2.7349,-0.58531 4.1623,-0.61879 1.0524,-0.0258 2.0779,-0.0192 2.9251,0.0564 0.06,0 0.1416,0 0.1686,-0.0564 0.1404,-0.27739 0.1158,-1.3048 0,-1.5636 -1.0614,-0.81003 -2.3767,-1.0569 -3.7933,-1.0546 z m 25.393,7.8946 c -6.3488,7.0097 -9.9723,10.996 -16.31,17.943 -0.75962,-0.4528 -1.6386,-0.7312 -2.5873,-0.7312 -0.33541,0 -0.63842,0.053 -0.95642,0.1125 l -1.0686,-3.0374 z m -25.646,5.1749 4.4431,12.6 c -1.1874,0.6021 -2.1079,1.644 -2.5309,2.9249 l -0.1716,-0.2813 0.1716,-0.6187 -0.39361,-0.45 0.22501,-0.6188 -0.39421,-0.3937 0.1098,-0.6188 -0.39361,-0.45 0.06,-0.6186 -0.45001,-0.3938 0.06,-0.5626 -0.45001,-0.3936 v -0.6188 l -0.50641,-0.3375 v -0.5625 l -0.56222,-0.2812 -0.054,-0.6188 -0.50641,-0.3375 -0.054,-0.5625 -0.56282,-0.225 -0.22501,-0.6187 -0.50581,-0.2249 -0.22501,-0.56247 -0.50641,-0.1689 -0.22501,-0.5062 z m -15.019,3.375 c 3.1159,0 6.0062,0.983 8.3252,2.6999 l -5.3437,6.525 c -0.85862,-0.5374 -1.8936,-0.8439 -2.9815,-0.8439 -3.0883,0 -5.5687,2.4802 -5.5687,5.5687 0,3.0884 2.4799,5.625 5.5687,5.625 2.7481,0 4.9861,-2.0559 5.4565,-4.6688 l 8.4374,-0.225 c -0.38341,7.3789 -6.4178,13.219 -13.894,13.219 -7.7264,0 -13.95,-6.2239 -13.95,-13.95 0,-7.7258 6.2234,-13.95 13.95,-13.95 z m 50.734,1.1812 c 1.5528,-0.5933 3.1861,-0.9001 4.9501,-0.9001 7.7264,0 14.006,6.2241 14.006,13.95 0,7.726 -6.2798,14.006 -14.006,14.006 -7.7258,0 -13.893,-6.2801 -13.893,-14.006 0,-5.4655 3.0883,-10.138 7.6496,-12.431 l 3.3751,7.6499 c -1.605,0.9824 -2.6437,2.7615 -2.6437,4.7811 0,3.0888 2.4799,5.5687 5.5687,5.5687 3.0883,0 5.6246,-2.4802 5.6246,-5.5687 0,-3.0885 -2.5363,-5.5687 -5.6246,-5.5687 -0.56222,0 -1.119,0.071 -1.6314,0.225 z m -45.165,12.375 c -0.1044,-1.334 -0.64262,-2.5799 -1.5186,-3.4874 l 5.2873,-6.5249 c 2.6707,2.4159 4.4365,5.8794 4.6123,9.7312 m -13.95,-4.2188 c 0.94442,0 1.8396,0.3235 2.5879,0.7875 0.1758,0.1081 0.34681,0.2135 0.50581,0.3375 0.0828,0.069 0.1482,0.153 0.22501,0.225 0.0864,0.078 0.19981,0.081 0.28141,0.1688 0.72842,0.7838 1.1472,1.8504 1.2372,2.9811 0.012,0.1298 0.054,0.2616 0.054,0.3938 0,0.3379 -0.048,0.6379 -0.1128,0.9562 v 0.056 c -0.47161,2.2092 -2.4313,3.881 -4.7809,3.881 -2.7019,0 -4.8937,-2.1912 -4.8937,-4.8935 0,-2.7027 2.1907,-4.8938 4.8937,-4.8938 z m 21.769,0.225 c 2.4541,0 4.4437,1.9893 4.4437,4.4438 0,1.0449 -0.40921,1.9974 -1.0122,2.7561 l -1.4064,-1.4061 c -0.45361,-0.4902 -0.67502,-0.923 -0.67502,-1.2375 0,-0.3822 0.36541,-0.9624 1.0122,-1.575 -0.2046,-0.3044 -0.42721,-0.583 -0.73082,-0.7875 -0.61322,0.6478 -1.1934,1.0687 -1.575,1.0687 -0.38281,0 -0.96243,-0.4209 -1.575,-1.0687 -0.30481,0.2045 -0.58262,0.4831 -0.78782,0.7875 0.64802,0.6126 1.0128,1.1928 1.0128,1.575 0,0.382 -0.36481,0.962 -1.0128,1.5749 0.204,0.304 0.48301,0.5268 0.78782,0.7312 0.61262,-0.6472 1.1934,-1.0125 1.575,-1.0125 0.33241,0 0.77102,0.2851 1.2936,0.7875 l 1.2936,1.35 c -0.74522,0.5654 -1.6362,0.9 -2.6437,0.9 -2.4541,0 -4.4437,-1.9893 -4.4437,-4.4436 0,-2.4545 1.9897,-4.4438 4.4437,-4.4438 z m 33.972,0.056 c 2.7019,0 4.8937,2.1918 4.8937,4.8936 0,2.7029 -2.1919,4.8938 -4.8937,4.8938 -2.7025,0 -4.8937,-2.1909 -4.8937,-4.8938 0,-1.9699 1.1898,-3.668 2.8687,-4.4436 0.60962,-0.2727 1.3146,-0.45 2.0251,-0.45 z m -56.134,0.1686 c -0.06,0.018 -0.27661,0.4945 -0.33721,0.5064 -0.06,0.018 -0.50281,-0.3558 -0.56282,-0.3375 -0.06,0.018 -0.22321,0.5379 -0.28141,0.5625 -0.06,0.023 -0.50761,-0.2553 -0.56222,-0.225 -0.054,0.031 -0.06,0.583 -0.1128,0.6186 -0.054,0.036 -0.57122,-0.099 -0.61862,-0.056 -0.048,0.041 -0.024,0.5732 -0.06,0.6187 -0.042,0.047 -0.58082,0 -0.61862,0.056 -0.036,0.05 0.147,0.5647 0.1128,0.6187 -0.03,0.052 -0.53641,0.1692 -0.56282,0.225 -0.03,0.058 0.24541,0.5035 0.22501,0.5625 -0.024,0.059 -0.54841,0.2199 -0.56222,0.2813 -0.018,0.059 0.34501,0.4441 0.33721,0.5062 -0.012,0.063 -0.39241,0.3871 -0.39361,0.45 0,0.063 0.38821,0.3313 0.39361,0.3938 0,0.063 -0.40501,0.4448 -0.39361,0.5062 0.018,0.062 0.54361,0.2213 0.56222,0.2813 0.018,0.059 -0.24901,0.5607 -0.22501,0.6187 0.024,0.058 0.53281,0.1128 0.56282,0.1688 0.03,0.054 -0.1488,0.5676 -0.1128,0.6186 0.036,0.05 0.52201,0.068 0.56282,0.1154 0.036,0.046 -0.048,0.5761 0,0.6187 0.048,0.043 0.56822,-0.094 0.61862,-0.056 0.054,0.037 0.1146,0.5866 0.1686,0.6187 0.054,0.032 0.50641,-0.1944 0.56282,-0.1687 0.06,0.027 0.1656,0.5416 0.22501,0.5625 0.06,0.022 0.50101,-0.3515 0.56222,-0.3375 0.06,0.018 0.33181,0.5546 0.39361,0.5625 0.06,0.018 0.38821,-0.4512 0.45001,-0.45 0.06,0 0.38821,0.4553 0.45001,0.45 0.06,-0.018 0.27601,-0.4943 0.33781,-0.5063 0.06,-0.018 0.50281,0.3557 0.56222,0.3376 0.06,-0.018 0.22381,-0.538 0.28141,-0.5626 0.06,-0.023 0.50821,0.198 0.56222,0.1688 0.054,-0.031 0.0678,-0.5267 0.1158,-0.5625 0.054,-0.036 0.57122,0.043 0.61862,0 0.048,-0.041 0.018,-0.573 0.054,-0.6187 0.042,-0.046 0.58082,0.062 0.61862,0 0.036,-0.05 -0.144,-0.5649 -0.1098,-0.6188 0.03,-0.054 0.59222,-0.1112 0.61922,-0.1688 0.03,-0.058 -0.30181,-0.5594 -0.28141,-0.6187 0.024,-0.059 0.54842,-0.2202 0.56222,-0.2812 0.018,-0.059 -0.34561,-0.4441 -0.33721,-0.5063 0.012,-0.063 0.44821,-0.3871 0.45001,-0.45 0,-0.063 -0.44461,-0.3312 -0.45001,-0.3937 -0.018,-0.063 0.40561,-0.4444 0.39361,-0.5062 -0.018,-0.062 -0.54422,-0.2775 -0.56222,-0.3375 -0.012,-0.059 0.24901,-0.5043 0.22501,-0.5626 -0.024,-0.058 -0.53221,-0.1709 -0.56282,-0.2249 -0.03,-0.054 0.204,-0.5675 0.1686,-0.6187 -0.036,-0.05 -0.57782,0.043 -0.61862,0 -0.048,-0.047 0.048,-0.6324 0,-0.6751 -0.048,-0.043 -0.56942,0.091 -0.61862,0.053 -0.054,-0.037 -0.1146,-0.5864 -0.1686,-0.6186 -0.054,-0.032 -0.50581,0.2511 -0.56282,0.225 -0.06,-0.027 -0.1656,-0.5983 -0.22501,-0.6189 -0.06,-0.021 -0.50161,0.2953 -0.56222,0.2814 -0.06,-0.018 -0.33241,-0.4425 -0.39361,-0.45 -0.06,-0.018 -0.33181,0.3949 -0.39421,0.3936 -0.06,0 -0.44401,-0.4552 -0.50581,-0.45 z m 56.134,0.2814 c -2.4475,0 -4.4437,1.9959 -4.4437,4.4436 0,2.4481 1.9963,4.3874 4.4437,4.3874 2.4481,0 4.4437,-1.9393 4.4437,-4.3874 0,-2.4477 -1.9957,-4.4436 -4.4437,-4.4436 z m 0,0.1686 c 0.1218,0 0.22501,0.1026 0.22501,0.225 0,0.1226 -0.1032,0.225 -0.22501,0.225 -0.1224,0 -0.22501,-0.1041 -0.22501,-0.225 0,-0.1224 0.1026,-0.225 0.22501,-0.225 z m 1.0716,0.107 c 0.024,0 0.048,0 0.054,0.01 0.1194,0.032 0.1992,0.1638 0.1692,0.2812 -0.03,0.117 -0.21841,0.1988 -0.33781,0.1688 -0.117,-0.032 -0.1446,-0.1638 -0.1122,-0.2813 0.024,-0.095 0.075,-0.1543 0.1686,-0.1687 0.006,0 0.036,-0.01 0.06,-0.01 z m -34.65,0.01 -0.28081,0.1688 -0.22501,-0.166 -0.22501,0.1688 -0.22501,-0.1125 -0.1722,0.225 -0.28081,-0.1688 -0.1692,0.2813 -0.33721,-0.056 -0.1128,0.225 -0.28081,-0.056 -0.054,0.2812 h -0.28141 l -0.1092,0.2813 -0.28141,0.056 v 0.225 l -0.28081,0.1125 v 0.2812 l -0.33781,0.1125 0.1098,0.225 -0.28141,0.1688 0.1152,0.2812 -0.28081,0.1688 0.1686,0.2812 -0.28141,0.1688 0.1686,0.2812 -0.22501,0.225 0.22501,0.1687 -0.1686,0.2813 0.22501,0.1687 -0.1686,0.2813 0.22501,0.1688 -0.06,0.2812 0.22501,0.1687 -0.06,0.2813 0.28141,0.1125 -0.06,0.2812 0.28081,0.1125 v 0.2813 h 0.33781 v 0.3375 h 0.28081 l 0.1128,0.2812 0.28141,-0.056 0.1092,0.2812 0.28141,-0.056 0.1152,0.2812 0.33781,-0.1125 0.1686,0.2251 0.28141,-0.1688 0.1686,0.225 0.22501,-0.1688 0.22501,0.2251 0.22501,-0.2251 0.28141,0.1688 0.1686,-0.2813 0.28141,0.1688 0.1686,-0.225 0.28141,0.056 0.1122,-0.2813 0.28141,0.056 0.1122,-0.225 -0.39361,-0.4499 c -0.45901,0.2834 -0.99603,0.4499 -1.575,0.4499 -1.662,0 -3.0373,-1.3196 -3.0373,-2.9811 0,-1.6619 1.3752,-3.0375 3.0373,-3.0375 1.662,0 2.9815,1.3756 2.9815,3.0375 0,0.5781 -0.1674,1.1166 -0.45001,1.5749 l 0.45001,0.3938 0.22501,-0.1125 -0.06,-0.225 0.28141,-0.1688 -0.06,-0.2813 0.1686,-0.1124 -0.1098,-0.3375 0.28141,-0.1688 -0.1686,-0.2812 0.1686,-0.225 -0.1686,-0.1687 0.1686,-0.2813 -0.22501,-0.1715 0.1686,-0.2785 -0.28081,-0.1715 0.1686,-0.2813 -0.28141,-0.1687 0.06,-0.2813 -0.28141,-0.1125 0.06,-0.2812 -0.33721,-0.1125 v -0.225 l -0.28141,-0.056 v -0.3346 h -0.28141 l -0.1122,-0.2813 -0.28141,0.053 -0.1122,-0.2811 -0.28141,0.1125 -0.1686,-0.2814 -0.28141,0.1125 -0.1686,-0.225 -0.28141,0.1125 z m 32.453,0 h 0.1122 c 0.0954,0 0.144,0.071 0.1692,0.1687 0.03,0.1188 -0.054,0.2501 -0.1692,0.2813 -0.1182,0.031 -0.19381,-0.05 -0.22501,-0.1688 -0.03,-0.1188 0,-0.2505 0.1128,-0.2812 z m 3.1501,0.3909 c 0.036,0 0.0798,0.034 0.1122,0.053 0.1044,0.062 0.1758,0.1747 0.1128,0.2813 -0.06,0.1041 -0.23101,0.1737 -0.33781,0.1125 -0.1044,-0.062 -0.117,-0.2311 -0.06,-0.3374 0.048,-0.071 0.0918,-0.1125 0.1686,-0.1125 z m -57.765,0 c 1.9039,0 3.4315,1.577 3.4315,3.4875 0,1.9106 -1.5276,3.4875 -3.4315,3.4875 -1.9039,0 -3.4309,-1.5769 -3.4309,-3.4875 0,-1.9105 1.527,-3.4875 3.4309,-3.4875 z m 53.715,0 c 0.0774,0 0.1254,0.037 0.1656,0.1098 0.06,0.1062 0.054,0.2759 -0.054,0.3375 -0.1068,0.062 -0.22021,0 -0.28141,-0.1098 -0.06,-0.1062 -0.1068,-0.22 0,-0.2812 0.03,-0.017 0.1284,-0.055 0.1656,-0.056 z m 2.0251,0.053 c 0.56402,0 1.0962,0.112 1.575,0.3375 l -2.4187,2.7563 -1.1814,-2.5313 c 0.57362,-0.3636 1.296,-0.5625 2.0251,-0.5625 z m -55.909,0.45 c -0.048,0 -0.29221,0.385 -0.33721,0.3938 -0.042,0.018 -0.35041,-0.2392 -0.39421,-0.225 -0.048,0.018 -0.183,0.3741 -0.22501,0.3937 -0.036,0.022 -0.41161,-0.133 -0.45001,-0.1096 -0.036,0.023 -0.0762,0.4769 -0.1122,0.5062 -0.036,0.028 -0.41881,-0.041 -0.45001,0 -0.03,0.034 0.03,0.4126 0,0.45 -0.03,0.037 -0.42781,0.1273 -0.45001,0.1687 -0.024,0.041 0.1302,0.3508 0.1122,0.3938 -0.012,0.043 -0.38221,0.2367 -0.39361,0.2812 -0.018,0.045 0.23041,0.3481 0.22501,0.3938 -0.018,0.046 -0.33721,0.2914 -0.33721,0.3374 0,0.046 0.33121,0.2919 0.33721,0.3375 0.012,0.046 -0.1788,0.349 -0.1686,0.3938 0.012,0.045 0.32041,0.1813 0.33721,0.225 0.018,0.043 -0.1368,0.41 -0.1152,0.45 0.024,0.04 0.42301,0.1309 0.45001,0.1687 0.03,0.037 -0.036,0.4166 0,0.45 0.03,0.035 0.41461,0.031 0.45001,0.056 0.036,0.028 0.075,0.4256 0.1152,0.45 0.036,0.023 0.40921,-0.1341 0.45001,-0.1125 0.048,0.02 0.1812,0.3797 0.22501,0.3938 0.048,0.018 0.40501,-0.1778 0.45001,-0.1688 0.048,0.018 0.23581,0.2784 0.28141,0.2812 0.048,0 0.29161,-0.2219 0.33781,-0.2249 0.048,0 0.34861,0.2338 0.39361,0.2249 0.042,-0.018 0.23761,-0.3793 0.28141,-0.3937 0.048,-0.018 0.40861,0.1878 0.44941,0.1688 0.048,-0.019 0.1314,-0.425 0.1692,-0.45 0.036,-0.023 0.35821,0.087 0.39361,0.056 0.036,-0.029 0.0804,-0.4726 0.1122,-0.5063 0.03,-0.034 0.42301,-0.019 0.45001,-0.056 0.03,-0.037 -0.1356,-0.4092 -0.1122,-0.45 0.024,-0.041 0.43261,-0.181 0.45001,-0.225 0.012,-0.043 -0.1794,-0.3491 -0.1686,-0.3937 0.012,-0.045 0.33121,-0.2916 0.33721,-0.3375 0.018,-0.047 -0.28141,-0.3479 -0.28141,-0.3938 0,-0.046 0.28741,-0.2913 0.28141,-0.3375 -0.012,-0.046 -0.32521,-0.2367 -0.33721,-0.2812 -0.018,-0.045 0.1848,-0.4069 0.1686,-0.45 -0.018,-0.043 -0.42781,-0.1291 -0.45001,-0.1687 -0.024,-0.041 0.1392,-0.4689 0.1122,-0.5063 -0.03,-0.037 -0.47461,0.026 -0.50581,0 -0.03,-0.035 -0.024,-0.4769 -0.06,-0.5062 -0.036,-0.028 -0.41101,0.08 -0.45001,0.056 -0.036,-0.023 -0.075,-0.4306 -0.1128,-0.45 -0.048,-0.02 -0.40621,0.1241 -0.45001,0.1097 -0.048,-0.018 -0.23581,-0.3291 -0.28081,-0.3375 -0.048,-0.018 -0.34801,0.2843 -0.39421,0.2812 -0.048,0 -0.29161,-0.3403 -0.33721,-0.3375 z m 57.596,0 c 1.0926,0.5742 1.86,1.6886 1.9687,2.9813 l -3.5437,-0.7313 z m -4.5559,0.1716 c 0.06,0 0.075,0.016 0.1122,0.053 0.0864,0.086 0.0864,0.251 0,0.3375 -0.0864,0.086 -0.1944,0.086 -0.28141,0 -0.0858,-0.086 -0.0858,-0.2511 0,-0.3375 0.048,-0.043 0.1134,-0.053 0.1692,-0.053 z m 5.7374,0 c 0.06,0 0.126,0.016 0.1686,0.053 0.0864,0.086 0.0864,0.251 0,0.3375 -0.0864,0.086 -0.25081,0.086 -0.33721,0 -0.0864,-0.086 -0.0864,-0.2511 0,-0.3375 0.048,-0.043 0.1128,-0.053 0.1686,-0.053 z m -5.0065,0.053 1.1814,3.4312 -2.7565,-0.2813 c -0.012,-0.05 0,-0.059 0,-0.1125 0,-1.2595 0.61502,-2.3676 1.575,-3.0374 z m -1.3212,0.7792 c 0.006,0 0.024,0 0.03,0.01 0.1044,0.062 0.1176,0.231 0.06,0.3375 -0.06,0.1042 -0.174,0.1175 -0.28141,0.056 -0.1044,-0.062 -0.1194,-0.1748 -0.06,-0.2814 0.048,-0.072 0.0918,-0.1125 0.1686,-0.1125 0.018,0 0.036,-0.01 0.06,-0.01 0.006,0 0.024,-0.01 0.03,0 z m 6.9074,0 c 0.006,0 0.006,0.01 0.036,0.01 0.0798,0 0.183,0.043 0.22501,0.1153 0.06,0.1062 0.054,0.2196 -0.06,0.2812 -0.1056,0.062 -0.27481,0.052 -0.33721,-0.056 -0.06,-0.1062 0,-0.2755 0.1122,-0.3375 0.006,-0.01 0.018,-0.01 0.018,-0.01 z m -59.189,0.01 c 1.0884,0 1.9687,0.8769 1.9687,1.9687 0,1.0916 -0.88082,1.9687 -1.9687,1.9687 -1.0878,0 -1.9687,-0.8772 -1.9687,-1.9687 0,-1.0916 0.88082,-1.9687 1.9687,-1.9687 z m -0.06,0.5063 c -0.03,0 -0.1986,0.1661 -0.22501,0.1715 -0.03,0.018 -0.1428,-0.1197 -0.1686,-0.1125 -0.024,0.018 -0.20161,0.2116 -0.22501,0.225 -0.024,0.018 -0.20401,-0.018 -0.22501,0 -0.024,0.018 -0.036,0.2618 -0.06,0.2812 -0.018,0.02 -0.26641,0.09 -0.28141,0.1098 -0.012,0.021 0.018,0.201 0,0.2249 -0.012,0.023 -0.21721,0.1464 -0.22501,0.1716 -0.012,0.026 0.1704,0.1987 0.1692,0.225 0,0.027 -0.1692,0.1987 -0.1692,0.225 0,0.027 0.1638,0.1989 0.1692,0.225 0,0.027 -0.123,0.2003 -0.1128,0.2249 0.018,0.026 0.21241,0.1454 0.22501,0.1688 0.018,0.023 -0.018,0.2598 0,0.2812 0.018,0.022 0.26161,-0.018 0.28141,0 0.024,0.018 0.03,0.2664 0.06,0.2813 0.024,0.018 0.25741,-0.018 0.28141,0 0.024,0.018 0.1428,0.2177 0.1686,0.225 0.024,0.018 0.198,-0.1179 0.22501,-0.1125 0.03,0 0.198,0.1688 0.22501,0.1688 0.03,0 0.1986,-0.1634 0.22501,-0.1688 0.03,-0.018 0.2004,0.064 0.22501,0.056 0.024,-0.018 0.1452,-0.2117 0.1686,-0.225 0.024,-0.018 0.204,0.018 0.22501,0 0.024,-0.018 0.0942,-0.2058 0.1122,-0.225 0.018,-0.02 0.21,-0.093 0.22501,-0.1125 0.018,-0.022 -0.018,-0.257 0,-0.2813 0.018,-0.026 0.2184,-0.1436 0.22501,-0.1688 0.018,-0.026 -0.1158,-0.1987 -0.1122,-0.2249 0,-0.027 0.1716,-0.1988 0.1716,-0.225 0,-0.027 -0.21961,-0.1418 -0.22501,-0.1688 -0.012,-0.027 0.12,-0.2558 0.1098,-0.2812 -0.012,-0.026 -0.21241,-0.089 -0.22501,-0.1125 -0.012,-0.023 0.018,-0.26 0,-0.2812 -0.012,-0.022 -0.26221,-0.095 -0.28141,-0.1126 -0.024,-0.018 -0.036,-0.1525 -0.06,-0.1687 -0.024,-0.018 -0.25741,0.018 -0.28141,0 -0.024,-0.018 -0.0846,-0.2182 -0.1092,-0.225 -0.024,-0.018 -0.25501,0.06 -0.28141,0.056 -0.03,0 -0.1986,-0.1125 -0.22501,-0.1125 z m 51.892,0.4414 c 0.006,0 0.012,0.01 0.024,0.01 0.1194,0.031 0.1446,0.1637 0.1122,0.2812 -0.03,0.1188 -0.108,0.2029 -0.22501,0.1716 -0.1182,-0.031 -0.1986,-0.108 -0.1686,-0.225 0.024,-0.095 0.075,-0.2106 0.1686,-0.225 0.006,0 0.03,-0.01 0.06,-0.01 h 0.03 z m 7.7996,0 c 0.012,0 0.03,0.01 0.042,0.01 0.0948,0 0.144,0.1279 0.1686,0.2251 0.03,0.1185 0,0.194 -0.1128,0.225 -0.1182,0.032 -0.24901,-0.05 -0.28081,-0.1689 -0.03,-0.1185 0,-0.2505 0.1098,-0.2812 h 0.06 c 0,-0.01 0.006,-0.01 0.012,-0.01 z m -37.811,0.1183 c 0.41461,0 0.73082,0.3729 0.73082,0.7875 0,0.4142 -0.31681,0.731 -0.73082,0.731 -0.41521,0 -0.78782,-0.3168 -0.78782,-0.731 0,-0.4146 0.37261,-0.7875 0.78782,-0.7875 z m -21.825,0.1686 c 0.40801,0 0.73142,0.3217 0.73142,0.7314 0,0.4093 -0.32401,0.731 -0.73142,0.731 -0.40801,0 -0.73142,-0.3218 -0.73142,-0.731 0,-0.4095 0.32341,-0.7314 0.73142,-0.7314 z m 21.825,0 c -0.34141,0 -0.61922,0.2783 -0.61922,0.6189 0,0.3407 0.27781,0.6185 0.61922,0.6185 0.34021,0 0.61862,-0.2783 0.61862,-0.6185 0,-0.3411 -0.27841,-0.6189 -0.61862,-0.6189 z m 33.577,0.45 h 0.67502 l 0.28141,0.5625 -0.28141,0.5624 H 77.4896 l -0.28141,-0.5624 z m 1.2372,0.1689 2.7565,0.2811 v 0.1125 c 0,1.2597 -0.61502,2.3678 -1.575,3.0374 z m -5.0059,0.1686 h 0.06 c 0.1152,0 0.2112,0.057 0.22501,0.1687 v 0.056 c 0,0 -0.054,0.039 -0.054,0.053 -0.018,0.05 -0.018,0.086 -0.06,0.1125 0,0 -0.036,-0.018 -0.054,0 -0.036,0.023 -0.0678,0.056 -0.1158,0.056 -0.1218,0 -0.22501,-0.1041 -0.22501,-0.2249 0,-0.1224 0.1032,-0.225 0.22501,-0.225 z m 8.156,0 c 0.1224,0 0.22501,0.1026 0.22501,0.225 0,0.1223 -0.1026,0.2249 -0.22501,0.2249 -0.1224,0 -0.1686,-0.1044 -0.1686,-0.2249 0,-0.1224 0.048,-0.225 0.1686,-0.225 z m -7.7624,0.5062 3.6001,0.7313 -1.6314,2.2499 c -1.0926,-0.5745 -1.8588,-1.6891 -1.9687,-2.9812 z m 4.5001,0.3375 1.1814,2.5284 c -0.57302,0.3637 -1.239,0.5653 -1.9693,0.5653 -0.56282,0 -1.0962,-0.1141 -1.5744,-0.3403 z m -39.653,0.1097 c 0.024,0.085 0.03,0.1989 0.06,0.2812 l -0.1128,-0.225 z m 34.889,0.104 c 0.018,0 0.024,0.01 0.036,0.01 0.0948,0 0.144,0.073 0.1686,0.1688 0.03,0.1187 0,0.1941 -0.1128,0.2249 -0.1182,0.031 -0.25021,0 -0.28081,-0.1125 -0.03,-0.1184 0.054,-0.2504 0.1686,-0.2812 0,-0.01 0.018,-0.01 0.018,-0.01 z m 7.9478,0 c 0.006,0 0.012,0.01 0.024,0.01 0.117,0.032 0.1434,0.1062 0.1128,0.2251 -0.03,0.1185 -0.108,0.1989 -0.22501,0.1686 -0.1188,-0.032 -0.1986,-0.1062 -0.1686,-0.2249 0.024,-0.095 0.075,-0.1545 0.1686,-0.1688 0.018,0 0.06,-0.012 0.09,-0.01 z m -7.5152,0.9647 c 0.075,0 0.129,0.042 0.1692,0.1125 0.06,0.1065 0.054,0.2767 -0.054,0.3374 -0.1062,0.061 -0.21961,0 -0.28141,-0.1124 -0.06,-0.1062 -0.054,-0.2198 0.054,-0.2812 0.036,-0.018 0.075,-0.018 0.1152,0 z m 7.1438,0.048 c 0.024,0 0.048,0 0.06,0.01 0.1044,0.061 0.1194,0.1747 0.06,0.2812 -0.06,0.1044 -0.1746,0.1709 -0.28141,0.1097 -0.1038,-0.062 -0.1728,-0.2313 -0.1122,-0.3375 0.036,-0.067 0.099,-0.039 0.1686,-0.053 h 0.06 c 0.018,0 0.036,-0.01 0.06,-0.01 z m -6.4688,0.7959 c 0.06,0 0.075,0.018 0.1128,0.056 0.0864,0.086 0.0864,0.1948 0,0.2813 -0.0864,0.086 -0.1944,0.086 -0.28141,0 -0.0864,-0.086 -0.0864,-0.1948 0,-0.2813 0.048,-0.041 0.1134,-0.056 0.1686,-0.056 z m 5.7374,0 c 0.054,0 0.126,0.018 0.1692,0.056 0.0858,0.086 0.0858,0.1948 0,0.2813 -0.0864,0.086 -0.25081,0.086 -0.33781,0 -0.0858,-0.086 -0.0858,-0.1948 0,-0.2813 0.048,-0.041 0.1134,-0.056 0.1686,-0.056 z m -4.8373,0.6666 c 0.024,0 0.036,0 0.06,0.01 0.1044,0.062 0.1182,0.1748 0.054,0.2811 -0.06,0.1044 -0.23101,0.1701 -0.33781,0.1125 -0.1038,-0.061 -0.06,-0.1746 0,-0.2811 0.048,-0.072 0.09,-0.1125 0.1692,-0.1125 0.018,0 0.036,-0.01 0.06,-0.01 z m 3.9097,0 c 0.03,0 0.06,0.01 0.084,0.01 0.0798,0 0.183,0.043 0.22501,0.1097 0.06,0.1062 0,0.2197 -0.1122,0.2812 -0.1056,0.062 -0.21961,0 -0.28141,-0.1125 -0.06,-0.1062 -0.054,-0.2197 0.06,-0.2812 0.006,-0.01 0.024,-0.01 0.03,-0.01 z m -2.9893,0.3992 h 0.036 c 0.1152,0.034 0.1956,0.1647 0.1656,0.2814 -0.03,0.1185 -0.1638,0.1989 -0.28141,0.1686 -0.117,-0.032 -0.1404,-0.1635 -0.1092,-0.2811 0.024,-0.09 0.0978,-0.1639 0.1848,-0.1716 z m 2.0047,0 h 0.12 c 0.0954,0 0.19861,0.074 0.22501,0.1689 0.03,0.1185 -0.054,0.2503 -0.1686,0.2811 -0.1188,0.032 -0.24961,-0.052 -0.28141,-0.1686 -0.03,-0.1188 0,-0.2494 0.1128,-0.2814 z m -0.95642,0.1098 c 0.1224,0 0.22501,0.1026 0.22501,0.225 0,0.1224 -0.1026,0.225 -0.22501,0.225 -0.1218,0 -0.22501,-0.1026 -0.22501,-0.225 0,-0.1224 0.1032,-0.225 0.22501,-0.225 z m -29.364,0.1575 c 0.054,-0.01 0.1146,0.014 0.174,0.014 0.31861,0 0.55982,0.2437 0.55982,0.5624 0,0.3192 -0.24121,0.5625 -0.55982,0.5625 -0.31861,0 -0.61862,-0.2433 -0.61862,-0.5625 0,-0.2391 0.18901,-0.4778 0.39361,-0.5624 0.012,-0.01 0.03,-0.013 0.054,-0.014 z m 0.174,0.2391 c -0.162,0 -0.28141,0.1763 -0.28141,0.3375 0,0.1619 0.1212,0.2812 0.28141,0.2812 0.162,0 0.28141,-0.1186 0.28141,-0.2812 0,-0.162 -0.1194,-0.3375 -0.28141,-0.3375 z m -1.1808,0.1096 c 0.1242,0 0.22501,0.1008 0.22501,0.225 0,0.1242 -0.1008,0.225 -0.22501,0.225 -0.1248,0 -0.22501,-0.1008 -0.22501,-0.225 0,-0.1242 0.1002,-0.225 0.22501,-0.225 z m 2.3059,0 c 0.1248,0 0.22501,0.1008 0.22501,0.225 0,0.1242 -0.1002,0.225 -0.22501,0.225 -0.1242,0 -0.22501,-0.1008 -0.22501,-0.225 0,-0.1242 0.1008,-0.225 0.22501,-0.225 z m -2.9251,0.056 c 0.0828,0 0.1692,0.084 0.1692,0.1687 0,0.083 -0.084,0.1125 -0.1692,0.1125 -0.0846,0 -0.1716,-0.03 -0.1716,-0.1125 0,-0.083 0.0894,-0.1687 0.1716,-0.1687 z m 3.5437,0 c 0.0828,0 0.1692,0.084 0.1692,0.1687 0,0.083 -0.084,0.1125 -0.1692,0.1125 -0.0822,0 -0.1716,-0.03 -0.1716,-0.1125 0,-0.083 0.0894,-0.1687 0.1716,-0.1687 z" /></g></svg>