<?xml version="1.0" encoding="iso-8859-1"?>
<!-- Generator: Adobe Illustrator 18.0.0, SVG Export Plug-In . SVG Version: 6.00 Build 0)  -->
<!DOCTYPE svg PUBLIC "-//W3C//DTD SVG 1.1//EN" "http://www.w3.org/Graphics/SVG/1.1/DTD/svg11.dtd">
<svg version="1.1" id="Capa_1" xmlns="http://www.w3.org/2000/svg" xmlns:xlink="http://www.w3.org/1999/xlink" x="0px" y="0px"
	 viewBox="0 0 395 395" style="enable-background:new 0 0 395 395;" xml:space="preserve">
<g>
	<path d="M82.196,127.203h0.3c3.866,0,7-3.134,7-7v-13.998l8.296-9.001l22.223,27.407c1.329,1.64,3.327,2.592,5.438,2.592h0.496
		c2.7,0,5.16-1.554,6.321-3.992c1.161-2.439,0.814-5.328-0.89-7.424l-23.751-29.214l21.333-23.018
		c1.892-2.041,2.395-5.009,1.281-7.559c-1.114-2.551-3.633-4.199-6.415-4.199h-0.474c-1.954,0-3.819,0.816-5.145,2.253
		L89.496,85.166V58.797c0-3.866-3.134-7-7-7h-0.3c-3.866,0-7,3.134-7,7v61.406C75.196,124.069,78.33,127.203,82.196,127.203z"/>
	<path d="M145.496,127.203h39.088c3.866,0,7-3.134,7-7v-0.299c0-3.866-3.134-7-7-7h-31.788V95.705h26.389c3.866,0,7-3.134,7-7
		v-0.301c0-3.866-3.134-7-7-7h-26.389V66.096h30.528c3.866,0,7-3.134,7-7v-0.299c0-3.866-3.134-7-7-7h-37.828c-3.866,0-7,3.134-7,7
		v61.406C138.496,124.069,141.63,127.203,145.496,127.203z"/>
	<path d="M206.456,127.203h39.088c3.866,0,7-3.134,7-7v-0.299c0-3.866-3.134-7-7-7h-31.788V95.705h26.389c3.866,0,7-3.134,7-7
		v-0.301c0-3.866-3.134-7-7-7h-26.389V66.096h30.528c3.866,0,7-3.134,7-7v-0.299c0-3.866-3.134-7-7-7h-37.828c-3.866,0-7,3.134-7,7
		v61.406C199.456,124.069,202.59,127.203,206.456,127.203z"/>
	<path d="M267.415,127.203h0.3c3.866,0,7-3.134,7-7v-14.598h13.279c18.677,0,30.279-10.396,30.279-27.131
		c0-16.455-11.603-26.678-30.279-26.678h-20.579c-3.866,0-7,3.134-7,7v61.406C260.415,124.069,263.549,127.203,267.415,127.203z
		 M274.715,66.096h13.279c15.979,0,15.979,9.317,15.979,12.379c0,3.173,0,12.83-15.979,12.83h-13.279V66.096z"/>
	<path d="M112.221,294.475c0-16.455-11.603-26.678-30.279-26.678H61.362c-3.866,0-7,3.134-7,7v61.406c0,3.866,3.134,7,7,7h0.3
		c3.866,0,7-3.134,7-7v-14.598h13.279c0.97,0,1.906-0.034,2.784-0.087l13.722,18.811c1.318,1.806,3.419,2.874,5.655,2.874h0.393
		c2.635,0,5.047-1.479,6.241-3.829c1.193-2.349,0.967-5.169-0.586-7.298L99.55,317.555
		C107.617,312.986,112.221,304.822,112.221,294.475z M81.941,307.305H68.662v-25.209h13.279c15.979,0,15.979,9.317,15.979,12.379
		C97.921,297.647,97.921,307.305,81.941,307.305z"/>
	<path d="M127.641,267.797h-0.3c-3.866,0-7,3.134-7,7v61.406c0,3.866,3.134,7,7,7h0.3c3.866,0,7-3.134,7-7v-61.406
		C134.641,270.931,131.507,267.797,127.641,267.797z"/>
	<path d="M199.658,299.834h-0.3c-3.866,0-7,3.134-7,7v18.101c-3.972,2.633-8.722,4.06-13.64,4.06
		c-13.426,0-24.349-10.56-24.349-23.539c0-12.93,10.923-23.449,24.349-23.449c5.921,0,11.562,2.004,15.883,5.642
		c2.779,2.341,6.888,2.165,9.458-0.404l0.104-0.104c1.392-1.392,2.133-3.305,2.042-5.271c-0.09-1.966-1.003-3.803-2.517-5.061
		c-6.987-5.81-15.855-9.011-24.971-9.011c-21.261,0-38.559,16.893-38.559,37.658c0,20.814,17.297,37.748,38.559,37.748
		c9.317,0,18.372-3.361,25.495-9.466c1.552-1.33,2.445-3.272,2.445-5.315v-21.588C206.658,302.968,203.524,299.834,199.658,299.834z
		"/>
	<path d="M272.947,267.797h-0.3c-3.866,0-7,3.134-7,7v23.238h-32.769v-23.238c0-3.866-3.134-7-7-7h-0.3c-3.866,0-7,3.134-7,7v61.406
		c0,3.866,3.134,7,7,7h0.3c3.866,0,7-3.134,7-7v-23.869h32.769v23.869c0,3.866,3.134,7,7,7h0.3c3.866,0,7-3.134,7-7v-61.406
		C279.947,270.931,276.814,267.797,272.947,267.797z"/>
	<path d="M333.638,267.797H290.14c-3.866,0-7,3.134-7,7v0.299c0,3.866,3.134,7,7,7h14.599v54.107c0,3.866,3.134,7,7,7h0.3
		c3.866,0,7-3.134,7-7v-54.107h14.6c3.866,0,7-3.134,7-7v-0.299C340.638,270.931,337.504,267.797,333.638,267.797z"/>
	<path d="M235.825,244.107c0.434,0.867,1.32,1.415,2.29,1.415h28.942c0.806,0,1.565-0.38,2.049-1.025l34.094-45.462
		c0.683-0.91,0.683-2.162,0-3.072l-34.094-45.462c-0.484-0.645-1.243-1.025-2.049-1.025h-28.942c-0.97,0-1.856,0.548-2.29,1.415
		c-0.434,0.868-0.341,1.906,0.241,2.682l22.143,29.523H93.848c-1.488,0-2.695,1.206-2.695,2.694v23.416
		c0,1.488,1.207,2.694,2.695,2.694h164.361l-22.143,29.523C235.484,242.201,235.392,243.239,235.825,244.107z"/>
	<path d="M313.002,0H82C36.785,0,0,36.784,0,81.998v230.993C0,358.211,36.785,395,82,395h231.002
		C358.216,395,395,358.211,395,312.991V81.998C395,36.784,358.216,0,313.002,0z M380,312.991C380,349.94,349.945,380,313.002,380H82
		c-36.944,0-67-30.06-67-67.009V81.998C15,45.056,45.056,15,82,15h231.002C349.945,15,380,45.056,380,81.998V312.991z"/>
</g>
<g>
</g>
<g>
</g>
<g>
</g>
<g>
</g>
<g>
</g>
<g>
</g>
<g>
</g>
<g>
</g>
<g>
</g>
<g>
</g>
<g>
</g>
<g>
</g>
<g>
</g>
<g>
</g>
<g>
</g>
</svg>
