<?xml version="1.0" encoding="UTF-8" standalone="no"?>
<!-- Generator: Adobe Illustrator 19.1.0, SVG Export Plug-In . SVG Version: 6.00 Build 0)  -->

<svg
   xmlns:i="http://ns.adobe.com/AdobeIllustrator/10.0/"
   xmlns:dc="http://purl.org/dc/elements/1.1/"
   xmlns:cc="http://creativecommons.org/ns#"
   xmlns:rdf="http://www.w3.org/1999/02/22-rdf-syntax-ns#"
   xmlns:svg="http://www.w3.org/2000/svg"
   xmlns="http://www.w3.org/2000/svg"
   xmlns:sodipodi="http://sodipodi.sourceforge.net/DTD/sodipodi-0.dtd"
   xmlns:inkscape="http://www.inkscape.org/namespaces/inkscape"
   version="1.1"
   id="Layer_1"
   x="0px"
   y="0px"
   viewBox="0 0 64 64"
   enable-background="new 0 0 64 64"
   xml:space="preserve"
   sodipodi:docname="pic15.svg"
   inkscape:version="0.92.1 r15371"><metadata
     id="metadata6915"><rdf:RDF><cc:Work
         rdf:about=""><dc:format>image/svg+xml</dc:format><dc:type
           rdf:resource="http://purl.org/dc/dcmitype/StillImage" /></cc:Work></rdf:RDF></metadata><defs
     id="defs6913" /><sodipodi:namedview
     pagecolor="#ffffff"
     bordercolor="#666666"
     borderopacity="1"
     objecttolerance="10"
     gridtolerance="10"
     guidetolerance="10"
     inkscape:pageopacity="0"
     inkscape:pageshadow="2"
     inkscape:window-width="1278"
     inkscape:window-height="846"
     id="namedview6911"
     showgrid="false"
     inkscape:zoom="8.6791159"
     inkscape:cx="29.548466"
     inkscape:cy="31.252952"
     inkscape:window-x="276"
     inkscape:window-y="16"
     inkscape:window-maximized="0"
     inkscape:current-layer="Layer_1" /><g
     id="g7998"
     transform="matrix(0.17384477,0,0,0.19404411,-6.5305261,-0.94250908)"
     style="stroke-width:6.18428516"><path
       inkscape:connector-curvature="0"
       id="path7947"
       style="fill:#ffffff;stroke:#000000;stroke-width:5.44476652"
       d="m 395.33,174.5 c 0,96.1 -77.68,174 -173.5,174 -95.82,0 -173.5,-77.9 -173.5,-174 0.003,-96.098 77.68,-174 173.5,-174 95.83,0 173.5,77.902 173.5,174 z"
       i:knockout="Off" /><path
       inkscape:connector-curvature="0"
       id="path7949"
       d="m 286.33,53.5 c 0,13.807 -11.86,25 -26.5,25 -14.63,0 -26.5,-11.193 -26.5,-25 0,-13.807 11.87,-25 26.5,-25 14.64,0 26.5,11.193 26.5,25 z"
       i:knockout="Off"
       style="stroke-width:6.18428516" /><path
       inkscape:connector-curvature="0"
       id="path7951"
       d="m 113.83,173 c 1.06,6.36 19.84,128.92 19.84,128.92 H 202 c 0,0 13.6,-125.03 13.83,-128.92 6.23,-0.62 7.67,-6 -1,-6 -12.16,0 -89.2,-0.06 -98,0 -8.79,0.06 -7.83,5.49 -3,6 z"
       i:knockout="Off"
       style="stroke-width:6.18428516" /><path
       inkscape:connector-curvature="0"
       id="path7953"
       d="m 126.33,141.5 c 17.29,-5.32 24.18,-23.53 27,-31 14.52,6.6 40.34,12.26 59,8 3.69,19.42 -28.04,19.31 -23,37 -8.42,-9.3 -51.59,12.29 -63,-14 z"
       i:knockout="Off"
       style="stroke-width:6.18428516" /><path
       inkscape:connector-curvature="0"
       id="path7955"
       d="m 151.33,82.5 139,-1 c -0.6,3.421 33.64,57.5 29,67 -4.09,0.42 -67,5 -67,5 6.11,-9.38 -13,-43 -13,-43 z"
       i:knockout="Off"
       style="stroke-width:6.18428516" /><path
       inkscape:connector-curvature="0"
       id="path7957"
       d="m 318.33,156.5 -66,-3 c 0,0 -23.56,143.36 -24,145 -0.43,1.64 1.86,2.54 3,1 1.15,-1.54 51,-82 51,-82 0,0 19.76,80.7 20,82 0.25,1.3 3.72,1.21 4,0 0.28,-1.21 12,-143 12,-143 z"
       i:knockout="Off"
       style="stroke-width:6.18428516" /><path
       inkscape:connector-curvature="0"
       id="path7959"
       style="fill:#ffffff;stroke:#000000;stroke-width:5.44476652"
       d="m 136.86,297.94 h 61.5 c 0,0 18.9,-125.47 11.1,-125.47 -1.83,0 -86.44,-0.01 -88.2,0 -7.92,0.05 15.6,125.47 15.6,125.47 z"
       i:knockout="Off" /><path
       inkscape:connector-curvature="0"
       id="path7963"
       d="m 169.49,298.5 h -5.31 V 171.17 h 5.31 z"
       i:knockout="Off"
       style="stroke-width:6.18428516" /><path
       inkscape:connector-curvature="0"
       id="path7965"
       d="m 189.59,298.87 -5.05,-0.41 8.37,-127.34 5.05,0.4 z"
       i:knockout="Off"
       style="stroke-width:6.18428516" /><path
       inkscape:connector-curvature="0"
       id="path7967"
       d="m 144.91,299.2 5.05,-0.41 -8.37,-127.34 -5.05,0.41 z"
       i:knockout="Off"
       style="stroke-width:6.18428516" /><g
       id="g7969"
       style="stroke-width:6.18428516"><path
         inkscape:connector-curvature="0"
         id="path7971"
         d="m 213.17,191.69 v 5.62 h -94.34 v -5.62 z"
         i:knockout="Off"
         style="stroke-width:6.18428516" /><path
         inkscape:connector-curvature="0"
         id="path7973"
         d="m 209.83,219.02 v 5.62 h -86.66 v -5.62 z"
         i:knockout="Off"
         style="stroke-width:6.18428516" /><path
         inkscape:connector-curvature="0"
         id="path7975"
         d="m 206.83,245.02 v 5.62 H 126.5 v -5.62 z"
         i:knockout="Off"
         style="stroke-width:6.18428516" /><path
         inkscape:connector-curvature="0"
         id="path7977"
         d="m 203.5,271.02 v 5.62 h -73 v -5.62 z"
         i:knockout="Off"
         style="stroke-width:6.18428516" /></g></g></svg>