<?xml version="1.0" encoding="iso-8859-1"?>
<!-- Generator: Adobe Illustrator 19.1.0, SVG Export Plug-In . SVG Version: 6.00 Build 0)  -->
<svg version="1.1" id="Capa_1" xmlns="http://www.w3.org/2000/svg" xmlns:xlink="http://www.w3.org/1999/xlink" x="0px" y="0px"
	 viewBox="0 0 62.926 62.926" style="enable-background:new 0 0 62.926 62.926;" xml:space="preserve">
<g>
	<g id="group-16svg">
		<path id="path-1_6_" d="M13.213,37.107c-0.828,0-1.287-0.672-1.287-1.5V4.765c0-0.828,0.459-1.5,1.287-1.5
			c9.647,0,16.921,7.274,16.921,16.921C30.134,29.832,22.86,37.107,13.213,37.107z M14.926,6.338v27.696
			c7-0.702,12.421-6.421,12.421-13.848C27.347,12.758,21.926,7.039,14.926,6.338z"/>
		<path id="path-2_6_" d="M27.327,29.247c-0.485,0-0.939-0.234-1.22-0.628c-0.282-0.394-0.356-0.899-0.199-1.357
			c0.014-0.042,1.41-4.167,1.41-7.076c0-2.91-1.396-7.035-1.41-7.076c-0.157-0.459-0.083-0.964,0.199-1.358
			c0.281-0.393,0.735-0.627,1.22-0.627c5.251,0,9.061,3.811,9.061,9.061S32.578,29.247,27.327,29.247z M29.421,14.419
			c0.426,1.629,0.897,3.86,0.897,5.767s-0.471,4.137-0.897,5.766c2.724-0.833,3.967-3.309,3.967-5.766S32.145,15.253,29.421,14.419z
			"/>
		<path id="path-3_6_" d="M12.5,15.162h-11c-0.828,0-1.5-0.671-1.5-1.5c0-0.828,0.672-1.5,1.5-1.5h11c0.828,0,1.5,0.672,1.5,1.5
			C14,14.491,13.328,15.162,12.5,15.162z"/>
		<path id="path-4_4_" d="M12.5,27.162h-11c-0.828,0-1.5-0.671-1.5-1.5c0-0.828,0.672-1.5,1.5-1.5h11c0.828,0,1.5,0.672,1.5,1.5
			C14,26.491,13.328,27.162,12.5,27.162z"/>
		<path id="path-5_3_" d="M61.426,59.661c-0.828,0-1.5-0.671-1.5-1.5v-8.818c0-2.492-1.8-5.182-4.363-5.182
			c-0.034,0,0.041-0.001,0.009-0.003c-4.367-0.113-7.646-3.213-7.646-7.151V26.914c0-2.664-2.351-4.752-4.809-4.752H35.5
			c-0.828,0-1.5-0.671-1.5-1.5c0-0.828,0.672-1.5,1.5-1.5h7.617c4.14,0,7.809,3.405,7.809,7.752v10.094
			c0,2.698,2.361,4.154,4.784,4.154c0.043,0,0.192,0.002,0.233,0.005c4.311,0.166,6.983,4.238,6.983,8.177v8.818
			C62.926,58.991,62.255,59.661,61.426,59.661z"/>
	</g>
</g>
<g>
</g>
<g>
</g>
<g>
</g>
<g>
</g>
<g>
</g>
<g>
</g>
<g>
</g>
<g>
</g>
<g>
</g>
<g>
</g>
<g>
</g>
<g>
</g>
<g>
</g>
<g>
</g>
<g>
</g>
</svg>
