<?xml version="1.0" encoding="UTF-8" standalone="no"?>
<!-- Created with Inkscape (http://www.inkscape.org/) -->

<svg
   xmlns:dc="http://purl.org/dc/elements/1.1/"
   xmlns:cc="http://creativecommons.org/ns#"
   xmlns:rdf="http://www.w3.org/1999/02/22-rdf-syntax-ns#"
   xmlns:svg="http://www.w3.org/2000/svg"
   xmlns="http://www.w3.org/2000/svg"
   xmlns:sodipodi="http://sodipodi.sourceforge.net/DTD/sodipodi-0.dtd"
   xmlns:inkscape="http://www.inkscape.org/namespaces/inkscape"
   width="210mm"
   height="297mm"
   viewBox="0 0 210 297"
   version="1.1"
   id="svg8"
   sodipodi:docname="pic3.svg"
   inkscape:version="0.92.1 r15371">
  <defs
     id="defs2" />
  <sodipodi:namedview
     id="base"
     pagecolor="#ffffff"
     bordercolor="#666666"
     borderopacity="1.0"
     inkscape:pageopacity="0.0"
     inkscape:pageshadow="2"
     inkscape:zoom="0.53609623"
     inkscape:cx="340.41558"
     inkscape:cy="507.18245"
     inkscape:document-units="mm"
     inkscape:current-layer="layer1"
     showgrid="false"
     inkscape:window-width="1357"
     inkscape:window-height="804"
     inkscape:window-x="165"
     inkscape:window-y="64"
     inkscape:window-maximized="0" />
  <metadata
     id="metadata5">
    <rdf:RDF>
      <cc:Work
         rdf:about="">
        <dc:format>image/svg+xml</dc:format>
        <dc:type
           rdf:resource="http://purl.org/dc/dcmitype/StillImage" />
        <dc:title></dc:title>
      </cc:Work>
    </rdf:RDF>
  </metadata>
  <g
     inkscape:label="Layer 1"
     inkscape:groupmode="layer"
     id="layer1">
    <path
       style="opacity:0.97000002;fill:none;fill-opacity:1;stroke:none;stroke-width:6.96500015;stroke-miterlimit:4;stroke-dasharray:none;stroke-dashoffset:7.89732218;stroke-opacity:1;paint-order:stroke fill markers"
       id="path975"
       d="m 50.286226,182.62093 c 6.106737,-1.10656 12.131339,-2.67351 18.16368,-4.1333 6.91687,-1.49195 13.835705,-2.99386 20.818655,-4.14629 3.094051,-0.32582 6.066015,-1.28886 9.125532,-1.80148 1.743797,-0.14461 3.476307,-0.38235 5.221997,-0.50112 2.95351,-0.11579 5.90184,-0.21755 8.84334,-0.52526 4.17065,-0.35891 8.34957,-0.60205 12.52165,-0.94434 4.39508,-0.46029 8.80875,-0.64998 13.22361,-0.78221 2.93964,-0.0806 5.88032,-0.11371 8.82076,-0.15094 1.76249,-0.0147 3.12333,0.75486 4.40346,1.88029 0.19297,0.2276 0.39842,0.44519 0.57892,0.6828 1.51541,1.9949 -0.51726,-0.51902 0.96568,1.40154 0.5858,0.75867 1.27985,1.43783 1.94444,2.12527 1.59611,1.62013 3.01621,3.38344 4.41435,5.17292 1.4053,1.77414 3.12049,3.23456 4.89001,4.62719 1.70946,1.40804 3.52647,2.66574 5.35809,3.90707 1.23584,0.88688 2.37816,1.8831 3.71757,2.61681 1.11903,0.45657 2.13762,1.1007 3.27117,1.52562 2.48755,0.63428 5.02595,1.08218 7.5564,1.51465 3.30172,0.53387 6.64526,0.67662 9.98306,0.76115 2.52958,0.0448 5.0597,0.0215 7.58925,-0.0117 1.3415,-0.12981 2.70733,-0.36693 3.8126,-1.17711 -11.49584,6.99495 -6.22328,3.92291 -3.94109,1.67373 1.21442,-1.23521 2.12543,-2.7116 3.00316,-4.19266 0.68221,-1.39895 1.44504,-2.7673 1.98361,-4.22984 0.5118,-1.43445 1.04906,-2.84503 1.36377,-4.33846 0.25982,-1.52203 0.27453,-3.07036 0.28055,-4.61004 0.009,-1.33719 0.004,-2.66808 -0.12493,-3.99948 -0.3739,-1.50854 -0.77121,-3.02656 -1.26123,-4.50339 -0.66327,-1.57688 -1.60916,-3.00982 -2.50863,-4.45785 -1.17017,-1.54669 -2.19592,-3.18737 -3.42373,-4.68968 -1.42466,-1.9363 -3.15473,-3.5654 -5.05544,-5.02188 -2.46697,-1.69429 -5.32703,-2.62307 -8.15,-3.52748 -2.59842,-0.86257 -5.25644,-1.48315 -7.94307,-2.00081 -3.14211,-0.61033 -6.32311,-1.03652 -9.5066,-1.3669 -3.77911,-0.34562 -7.57704,-0.38794 -11.36911,-0.41748 -3.1958,-0.0212 -6.39135,0.0319 -9.5867,0.0774 -1.73513,0.0221 -3.47036,0.0231 -5.20557,0.0295 -0.87034,0.18075 -1.82247,0.12653 -2.6561,0.47119 -0.62572,0.34933 -0.31624,0.20552 -0.9228,0.44337 2.20932,-1.25496 4.60594,-2.22624 6.62797,-3.76489 0.29741,-0.22631 -0.38407,-0.74939 -0.24149,-1.09485 0.11787,-0.28556 0.56575,-0.24837 0.84788,-0.37426 1.92179,-0.85751 3.83184,-1.64288 5.81011,-2.36623 0.93201,-0.33552 1.87177,-0.65022 2.79601,-1.00656 0.99963,-0.38541 1.97843,-0.82304 2.97425,-1.21816 3.99825,-1.58644 8.05117,-3.02695 12.07713,-4.5397 3.33408,-1.25036 6.55325,-2.81253 9.96252,-3.86112 1.53825,-0.47312 3.2747,-0.86365 4.83894,-1.23868 4.80706,-0.80758 9.6137,-1.5742 14.40777,-2.45893 3.46451,-0.59453 6.94618,-1.09937 10.44204,-1.46966 2.47509,-0.24185 4.96493,-0.24795 7.44939,-0.25072 3.13496,0.10197 6.2611,-0.0705 9.39129,-0.2111 2.58307,-0.17806 5.18053,-0.064 7.76398,-0.20756 1.20216,-0.0668 2.45935,-0.24118 3.65458,-0.38869 2.81313,-0.22438 5.54059,-0.91319 8.26946,-1.5921 2.29147,-0.48892 4.62789,-0.75284 6.95068,-1.055 1.62274,-0.16608 3.23894,-0.28294 4.82315,-0.6882 1.5048,-0.33349 3.02889,-0.54175 4.5397,-0.84242 1.2284,-0.39723 2.47927,-0.69477 3.71596,-1.05924 0.40224,0.027 0.71509,-0.2681 1.0891,-0.33333 1.22444,-0.21354 1.47138,1.1349 1.67778,2.00923 0.34851,3.53151 0.24418,7.09019 0.2553,10.6344 0.038,4.53906 -0.28102,9.07853 -0.80354,13.58501 -0.52274,4.12249 -0.951,8.25842 -1.68291,12.3506 -0.49223,2.43897 -0.79584,4.90826 -1.18737,7.36381 -0.16399,1.57686 -0.44815,3.13306 -0.71689,4.69386 -0.37055,1.58766 -0.86276,3.12643 -1.10866,4.74209 -0.18944,1.81488 -0.46686,3.61741 -0.63268,5.43499 -0.0994,2.11115 -0.32794,4.2118 -0.50436,6.3173 -0.20828,2.71713 -0.24025,5.44389 -0.23654,8.16775 0.0205,1.8299 0.04,3.65978 0.0643,5.48964 -0.0523,1.18483 -0.27822,2.35153 -0.39687,3.53047 -0.0546,0.71551 -0.0177,0.35129 -0.11289,1.09241 0,0 -7.07024,3.4554 -7.07024,3.4554 v 0 c 0.14396,-0.67463 0.0958,-0.32803 0.13917,-1.04053 0.1,-1.17084 0.29595,-2.32573 0.47303,-3.48662 0.0207,-1.85683 0.0369,-3.71372 0.0796,-5.57021 0.0438,-2.731 0.0528,-5.46359 0.17287,-8.19263 0.13399,-2.0985 0.41314,-4.18534 0.4306,-6.29036 0.14601,-1.83578 0.46129,-3.6472 0.642,-5.47848 0.17826,-1.6235 0.55626,-3.16454 1.00713,-4.72862 0.27618,-1.58032 0.69539,-3.13067 0.82684,-4.73511 0.39463,-2.49983 0.83602,-4.99202 1.3481,-7.47075 0.8505,-4.0934 1.34038,-8.24839 1.89041,-12.3902 0.52214,-4.4642 0.75122,-8.96126 0.74268,-13.45588 -0.0111,-3.44069 0.0236,-6.90814 -0.45953,-10.32142 -0.006,-0.0216 -0.13878,-0.85661 -0.36594,-0.99106 -0.30558,-0.18085 -1.4266,0.40754 -1.78251,0.41522 -1.23285,0.35835 -2.48436,0.65671 -3.7272,0.97684 -1.5061,0.2873 -3.03042,0.4772 -4.51872,0.85529 -1.5865,0.31226 -3.19208,0.41035 -4.79835,0.57696 -2.29685,0.28583 -4.60298,0.56722 -6.85906,1.09416 -2.71156,0.64635 -5.42899,1.25589 -8.22067,1.43306 -3.80529,0.37432 -7.62089,0.36068 -11.43798,0.55333 -3.17292,0.17077 -6.34402,0.30842 -9.52285,0.26677 -2.46243,0.0283 -4.92728,0.0591 -7.38105,0.2902 -3.42151,0.32937 -6.82598,0.82331 -10.21791,1.37608 -4.77382,0.85413 -9.57214,1.54164 -14.33384,2.45772 -1.83227,0.45427 -2.98285,0.70662 -4.7851,1.28658 -3.36403,1.08252 -6.56806,2.59413 -9.88063,3.81422 -5.99919,2.18177 -11.96138,4.44847 -17.89219,6.809 -2.88343,1.14461 -1.93762,0.7231 -4.54874,1.92207 -0.53139,0.244 -1.05605,0.50265 -1.58975,0.74154 -0.34158,0.1529 -0.6705,0.5158 -1.0356,0.43361 -0.41181,-0.0927 -1.24644,-0.60909 -0.91715,-0.87318 2.09552,-1.68064 4.66337,-2.66759 6.99505,-4.00138 1.16913,-0.46857 2.43277,-0.57799 3.68291,-0.6225 1.71286,0.005 3.42575,0.002 5.13857,0.0183 3.11803,0.0367 6.23594,0.0842 9.35417,0.10061 3.84538,0.0345 7.70266,0.005 11.53297,0.39281 3.20824,0.36935 6.4126,0.7973 9.58776,1.39148 2.70377,0.55774 5.40277,1.15877 8.01578,2.0637 2.86944,0.97443 5.74239,2.05114 8.27115,3.75389 1.96023,1.50008 3.76726,3.1243 5.24093,5.1214 1.23376,1.53881 2.32698,3.17748 3.51292,4.75291 0.91674,1.50294 1.89988,2.97625 2.60381,4.59689 0.55297,1.51195 0.89777,3.10985 1.34869,4.65359 0.17745,1.35685 0.26352,2.70426 0.18923,4.07451 -0.0246,1.58034 -0.0429,3.16474 -0.22934,4.73616 -0.24887,1.53818 -0.75947,2.98468 -1.32413,4.43149 -0.4405,1.55997 -1.29781,2.91648 -1.94675,4.39424 -0.85573,1.51617 -1.74637,3.02641 -2.89323,4.34123 -0.36679,0.41982 -0.98044,1.1387 -1.39667,1.49655 -0.12755,0.10966 -0.30269,0.15128 -0.43647,0.25325 -0.13627,0.10388 -0.24494,0.23969 -0.36742,0.35954 -2.39296,1.39191 -4.78592,2.78381 -7.17888,4.17572 -1.26004,0.55235 -2.60269,0.80154 -3.98019,0.79297 -2.48262,-0.0257 -4.96537,-0.0505 -7.44725,-0.11986 -3.35297,-0.10818 -6.70849,-0.29553 -10.02089,-0.86013 -2.63293,-0.42479 -5.30378,-0.77612 -7.87406,-1.49075 -1.15513,-0.46948 -2.25252,-1.05794 -3.3699,-1.60918 -1.29414,-0.81035 -2.41036,-1.83373 -3.64191,-2.7298 -1.83202,-1.26938 -3.64216,-2.56273 -5.37644,-3.96364 -1.78431,-1.45452 -3.55184,-2.95939 -4.97376,-4.78385 -1.3868,-1.75935 -2.78858,-3.50788 -4.3798,-5.09015 -0.71641,-0.7069 -1.44963,-1.40283 -2.06956,-2.19932 -0.3315,-0.42592 -0.58908,-0.90643 -0.92436,-1.32939 -0.16087,-0.20294 -0.35075,-0.38109 -0.52613,-0.57164 -1.21832,-0.94509 -2.45797,-1.53684 -4.04792,-1.47201 -2.8628,-0.0365 -5.72605,-0.0478 -8.58875,0.007 -4.3771,0.10485 -8.74947,0.32914 -13.1086,0.7516 -4.22335,0.37841 -8.45609,0.64119 -12.6746,1.07036 -2.99103,0.2837 -5.98995,0.40159 -8.985259,0.62199 -1.737831,0.19597 -3.477268,0.36159 -5.212725,0.57113 -2.910713,0.513 -5.789568,1.22109 -8.738701,1.49908 -6.869496,1.05201 -13.681845,2.4534 -20.466597,3.95144 -6.299494,1.54289 -12.5965,3.10283 -18.862538,4.77508 0,0 6.155976,-4.80928 6.155976,-4.80928 z"
       inkscape:connector-curvature="0" />
    <path
       style="opacity:0.97000002;fill:none;fill-opacity:1;stroke:none;stroke-width:6.96500015;stroke-miterlimit:4;stroke-dasharray:none;stroke-dashoffset:7.89732218;stroke-opacity:1;paint-order:stroke fill markers"
       id="path979"
       d="m -83.318349,164.80233 c 1.747446,0.0877 1.632117,0.0916 3.687334,0.13907 2.845935,0.0657 3.590128,0.0105 6.591996,0.24937 3.588702,0.28557 8.037552,0.86316 11.507686,1.2781 8.510948,0.94662 12.515879,1.4221 21.44458,2.26853 5.05139,0.47887 10.108163,0.8992 15.161672,1.35515 19.988681,1.80345 39.977684,3.60169 59.96814,5.38554 38.13557,3.17275 76.212731,6.98465 114.307641,10.59945 13.95985,1.33659 7.42073,0.71127 19.61731,1.8765 0,0 -4.68841,3.31845 -4.68841,3.31845 v 0 c -11.3807,-1.76938 -5.25875,-0.84335 -18.36957,-2.75352 -37.39634,-4.8868 -74.885889,-9.09035 -112.503617,-11.87262 -17.426207,-1.37441 -25.3047212,-2.04808 -42.5728125,-3.20928 -19.1031385,-1.28459 -38.2299545,-2.16249 -57.3343845,-3.42681 -7.709443,-0.50846 -15.433675,-1.10047 -23.161797,-0.59858 0,0 6.344232,-4.60935 6.344232,-4.60935 z"
       inkscape:connector-curvature="0" />
    <path
       style="fill:none;stroke:#000000;stroke-width:6.00000048;stroke-linecap:butt;stroke-linejoin:miter;stroke-miterlimit:4;stroke-dasharray:none;stroke-opacity:1"
       d="M -58.445004,160.49249 H 274.12061 Z"
       id="path1071"
       inkscape:connector-curvature="0" />
    <path
       style="fill:none;stroke:#000000;stroke-width:6.00000048;stroke-linecap:butt;stroke-linejoin:miter;stroke-miterlimit:4;stroke-dasharray:none;stroke-opacity:1"
       d="M -58.445005,289.64292 H 75.513428 Z"
       id="path1029"
       inkscape:connector-curvature="0" />
    <path
       style="fill:none;stroke:#000000;stroke-width:6;stroke-linecap:butt;stroke-linejoin:miter;stroke-miterlimit:4;stroke-dasharray:none;stroke-opacity:1"
       d="M -58.445005,160.49249 V 289.64292 Z"
       id="path1075"
       inkscape:connector-curvature="0" />
    <path
       style="fill:none;stroke:#000000;stroke-width:6.06500006;stroke-linecap:butt;stroke-linejoin:miter;stroke-miterlimit:4;stroke-dasharray:none;stroke-opacity:1"
       d="M 274.12061,160.49249 V 289.64292 Z"
       id="path1031"
       inkscape:connector-curvature="0" />
    <path
       inkscape:connector-curvature="0"
       id="path1077"
       d="M 135.88748,289.64292 H 274.1206 Z"
       style="fill:none;stroke:#000000;stroke-width:6;stroke-linecap:butt;stroke-linejoin:miter;stroke-miterlimit:4;stroke-dasharray:none;stroke-opacity:1" />
    <path
       style="fill:none;stroke:#000000;stroke-width:6;stroke-linecap:butt;stroke-linejoin:miter;stroke-miterlimit:4;stroke-dasharray:none;stroke-opacity:1"
       d="M 74.507214,289.64292 140.01457,265.70021"
       id="path1091"
       inkscape:connector-curvature="0" />
    <ellipse
       style="opacity:1;fill:#000000;fill-opacity:1;fill-rule:evenodd;stroke:#000000;stroke-width:3.06500053;stroke-miterlimit:4;stroke-dasharray:none;stroke-dashoffset:7.89732218;stroke-opacity:1;paint-order:stroke fill markers"
       id="path1093"
       cx="140.71696"
       cy="-285.43503"
       rx="3.5825417"
       ry="1.9858239"
       transform="scale(1,-1)" />
    <path
       d="m 138.99287,137.59355 c 0,1.67019 -2.32711,3.02672 -5.19142,3.02672 H 81.886903 c -2.864711,0 -5.191818,-1.35674 -5.191818,-3.02672 0,-1.67021 2.327107,-3.027 5.191818,-3.027 h 51.914547 c 2.86468,0 5.19142,1.35679 5.19142,3.027 z m -5.19142,-15.13389 H 81.886903 c -2.864711,0 -5.191818,1.35674 -5.191818,3.02672 0,1.67022 2.327107,3.02674 5.191818,3.02674 h 51.914547 c 2.86468,0 5.19142,-1.35674 5.19142,-3.02674 0,-1.6702 -2.32711,-3.02672 -5.19142,-3.02672 z m -39.444765,34.25705 c 1.973878,1.3087 4.82801,2.06371 7.808085,2.06371 h 11.35883 c 2.97852,0 5.83536,-0.75732 7.80809,-2.06371 l 15.06567,-10.04299 H 79.290993 Z M 180.52496,54.260426 c 0,25.207013 -38.93618,42.253662 -38.93618,62.145524 H 74.099582 c 0,-19.891862 -38.936182,-36.944674 -38.936182,-62.145524 0,-26.290374 36.31947,-40.764444 72.63938,-40.764444 36.36109,0 72.72218,14.492121 72.72218,40.764444 z M 100.37882,36.008994 98.106682,28.884079 C 77.164061,31.142289 64.278735,40.089093 61.589781,52.166047 l 12.334797,0.931189 c 1.204752,-5.4481 6.250578,-14.909905 26.455832,-17.089174 z"
       id="path1128"
       inkscape:connector-curvature="0"
       style="stroke-width:0.26458332" />
  </g>
</svg>
