<?xml version="1.0" encoding="iso-8859-1"?>
<!-- Generator: Adobe Illustrator 16.0.0, SVG Export Plug-In . SVG Version: 6.00 Build 0)  -->
<!DOCTYPE svg PUBLIC "-//W3C//DTD SVG 1.1//EN" "http://www.w3.org/Graphics/SVG/1.1/DTD/svg11.dtd">
<svg version="1.1" id="Capa_1" xmlns="http://www.w3.org/2000/svg" xmlns:xlink="http://www.w3.org/1999/xlink" x="0px" y="0px"
	 width="561.581px" height="561.581px" viewBox="0 0 561.581 561.581" style="enable-background:new 0 0 561.581 561.581;"
	 xml:space="preserve">
<g>
	<path d="M319.663,156.118c-32.856,0-59.494-26.64-59.494-59.491c0-31.165,23.982-56.693,54.491-59.242
		C323.443,15.483,344.828,0,369.862,0c26.415,0,48.771,17.224,56.546,41.042c3.426-0.616,6.944-0.989,10.557-0.989
		c29.394,0,53.746,21.342,58.572,49.359c-5.414-2.653-11.397-4.296-17.726-4.641c-8.224-13.504-22.962-22.041-39.306-22.041
		c-9.867,0-19.126,3.097-26.752,8.541c-7.72-10.067-19.835-16.594-33.501-16.594c-23.34,0-42.246,18.92-42.246,42.251
		c0,18.937,12.447,34.958,29.622,40.326c1.232,6.863,3.977,13.206,7.892,18.659L319.663,156.118z M469.466,98.673
		c-4.271-13.07-16.54-22.523-31.027-22.523c-7.668,0-14.701,2.646-20.264,7.073c1.475,4.301,2.324,8.898,2.324,13.705
		c0,22.801-18.09,41.343-40.711,42.167c4.214,13.166,16.54,22.71,31.105,22.71l64.369-0.24c18.02,0,32.632-12.774,32.632-30.801
		c0-18.021-14.612-32.641-32.632-32.641C473.275,98.123,471.342,98.328,469.466,98.673z M362.198,84.332
		c2.969,0,5.003,0.684,6.301,1.419l1.232-4.201c-1.479-0.742-4.322-1.544-7.533-1.544c-9.763,0-16.063,6.671-16.063,15.882
		c0,9.143,5.861,15.259,14.888,15.259c4.014,0,7.169-0.985,8.587-1.729l-0.924-4.077c-1.549,0.679-3.584,1.482-6.669,1.482
		c-5.927,0-10.38-4.268-10.38-11.185C351.632,89.402,355.337,84.332,362.198,84.332z M367.538,95.82
		c0-10.011,6.543-15.875,14.832-15.875c8.587,0,14.393,6.24,14.393,15.388c0,11.054-7.663,15.882-14.888,15.882
		C373.782,111.214,367.538,105.273,367.538,95.82z M373.035,95.638c0,6.552,3.771,11.495,9.082,11.495
		c5.19,0,9.083-4.879,9.083-11.619c0-5.071-2.53-11.493-8.952-11.493C375.817,84.021,373.035,89.951,373.035,95.638z
		 M400.487,106.878l-2.072,2.023v1.629h12.499v-2.198h-8.793v-0.068l1.563-1.442c4.125-3.981,6.748-6.903,6.748-10.515
		c0-2.8-1.782-5.691-6.002-5.691c-2.263,0-4.182,0.845-5.535,1.983l0.845,1.874c0.896-0.751,2.381-1.659,4.149-1.659
		c2.931,0,3.888,1.834,3.888,3.827C407.749,99.595,405.49,102.125,400.487,106.878z M537.708,488.237l-86.649-0.126v60.579h-14.794
		v-60.598l-45.7-0.065v41.481h-15.299v-41.51l-25.632-0.027l1.577-1.587l-40.916-0.056l49.803-49.798l-38.615-0.052l43.067-43.072
		l-33.5-0.052l51.869-51.865l5.797,5.82l54.95-54.941l64.854,65.026l-47.118-0.064l60.578,60.746l-54.306-0.074L537.708,488.237z
		 M385.786,488.018l-5.74-0.01v36.721h5.74V488.018z M419.314,418.292l-0.364-0.35l-53.597-0.08l26.794-26.798l-2.39-2.395
		l4.779,0.005l14.369-14.365l-17.034-17.072l-13.059-0.014l6.524-6.534l-2.427-2.437l-40.343,40.347l33.501,0.038L333,431.718
		l38.616,0.057l-49.798,49.788l34.172,0.052l44.011-44.011l-5.777-5.797l11.555,0.019L419.314,418.292z M425.932,357.284
		l-27.303-0.037l13.655,13.684L425.932,357.284z M112.341,269.215v27.76c0,2.166-1.752,3.921-3.918,3.921H78.349
		c-2.166,0-3.92-1.755-3.92-3.921v-27.76c0-2.17,1.755-3.925,3.92-3.925h30.075C110.589,265.291,112.341,267.045,112.341,269.215z
		 M104.499,273.138H82.276v19.907h22.223V273.138z M207.541,145.083c-0.616-1.008-1.382-1.969-2.289-2.905
		c-1.155-1.162-2.427-2.161-3.809-2.963c-0.803-0.448-1.664-0.922-2.558-1.214c-0.476-0.177-0.95-0.345-1.83-0.574
		c-0.497-0.086-0.999-0.168-1.4-0.206c-2.261-0.315-4.751,0.168-7.433,1.424c-0.175,0.086-0.361,0.187-0.529,0.306
		c-0.264,0.168-0.521,0.326-0.784,0.492c-0.588,0.359-1.167,0.719-1.97,1.372c-0.156,0.145-0.343,0.254-0.511,0.374
		c-0.598,0.415-1.176,0.845-1.587,1.276c-0.187,0.189-0.411,0.357-0.635,0.534c-0.497,0.397-0.971,0.798-1.291,1.123l-1.477,1.372
		c-0.101,0.072-0.196,0.138-0.282,0.215l-1.921,1.61c-0.049,0.035-0.086,0.073-0.128,0.105c-0.101,0.063-0.282,0.159-0.355,0.206
		c-0.333,0.212-0.644,0.422-1.241,0.784c-0.374,0.159-0.738,0.336-0.924,0.382c-0.166,0.04-0.324,0.077-0.497,0.122l-0.261,0.019
		c-0.569,0.028-0.98,0.101-1.783,0.005l-0.665-0.054c-0.301-0.072-0.607-0.128-0.961-0.177c-0.29-0.033-0.567-0.138-1.118-0.301
		c-0.745-0.187-1.447-0.448-2.107-0.693l-4.807-1.921c-1.409-0.583-3.026-0.292-4.144,0.738l-0.411,0.371
		c-1.108,1.029-1.538,2.604-1.094,4.049c0.1,0.334,0.521,1.55,1.568,3.15c0.675,1.064,1.4,2.007,2.154,2.77
		c1.02,1.129,2.233,2.161,3.685,3.127c0.774,0.488,1.587,0.964,2.261,1.241c0.971,0.506,2.065,0.884,3.164,1.118
		c1.057,0.287,2.184,0.423,3.36,0.423c1.447,0,2.929-0.217,4.406-0.628c0.177-0.056,0.364-0.124,0.539-0.21l0.665-0.275
		c0.775-0.327,1.755-0.737,2.91-1.563c0.187-0.154,0.382-0.292,0.579-0.43c0.674-0.483,1.51-1.092,2.221-1.955l0.283-0.315
		c0.728-0.842,1.549-1.778,2.093-2.936l0.942-2.074c0.086-0.143,0.156-0.301,0.224-0.458c0.059-0.14,0.11-0.278,0.147-0.416
		l0.03,0.01l0.672-1.391c0.112-0.168,0.273-0.301,0.422-0.45l0.301-0.338c0.128-0.086,0.271-0.135,0.411-0.196l0.233-0.114
		c0.131-0.025,0.264-0.025,0.392-0.03c0.068-0.009,0.128-0.019,0.206-0.028c0.842,0.124,1.586,0.364,2.457,0.646
		c0.429,0.138,0.84,0.248,1.085,0.297c0.272,0.1,0.539,0.18,0.821,0.252c0.383,0.096,0.765,0.238,1.223,0.406
		c0.952,0.32,1.841,0.693,2.672,1.039l2.312,0.931c1.496,0.63,2.467,0.952,2.467,0.952c1.362,0.457,2.877,0.133,3.93-0.847
		l0.41-0.374c1.127-1.059,1.538-2.686,1.036-4.146l-0.401-1.066C208.374,146.542,208.033,145.809,207.541,145.083z M212.702,300.896
		h-30.075c-2.166,0-3.918-1.755-3.918-3.921v-27.76c0-2.17,1.752-3.925,3.918-3.925h30.075c2.166,0,3.92,1.755,3.92,3.925v27.76
		C216.623,299.141,214.868,300.896,212.702,300.896z M208.784,273.138h-22.222v19.907h22.222V273.138z M241.426,270.49h19.828v3.584
		h-3.059c-1.218,3.346-4.1,10.618-9.057,19.961v36.333c0,2.17-1.764,3.925-3.927,3.925h-24.57
		c-15.527,16.75-36.536,32.954-64.308,42.946c-0.138,0.485-0.507,0.868-1.036,0.868h-1.417c-0.033,0.014-0.065,0.023-0.101,0.037
		v1.027h1.512c0.635,0,1.15,0.513,1.15,1.152c0,0.635-0.516,1.152-1.15,1.152h-1.512v3.174c0,0.42-0.338,0.766-0.763,0.766h-2.553
		c-0.521,1.391-1.305,3.104-2.441,5.055l12.888,7.061c0.388,0.215,0.579,0.663,0.469,1.083c-0.105,0.43-0.493,0.729-0.929,0.729
		h-3.775v1.96h1.507c0.635,0,1.151,0.518,1.151,1.152c0,0.64-0.516,1.153-1.151,1.153h-1.507v1.06h1.507
		c0.635,0,1.151,0.518,1.151,1.152c0,0.64-0.516,1.157-1.151,1.157h-1.507v3.165c0,0.429-0.338,0.774-0.768,0.774h-1.697
		c-0.728,3.841-2.94,11.967-9.33,20.703l5.477,23.476l9.768,22.411c0.054,0.121,0.072,0.252,0.072,0.383h2.7v2.819h-14.424v-2.819
		h3.447l-15.093-21.534h-5.152l-14.9,21.534h3.312v2.819h-14.424v-2.819h2.639c0-0.131,0.019-0.262,0.075-0.383l9.764-22.402
		l0.527-2.608c-6.389,3.001-13.913,5.562-22.773,7.425v2.03c0,0.603-0.483,1.088-1.085,1.088h-5.428c-0.603,0-1.09-0.485-1.09-1.088
		v-4.476h-2.49c-0.898,0-1.631-0.728-1.631-1.629c0-0.9,0.728-1.629,1.631-1.629h2.49v-1.493h-2.49
		c-0.898,0-1.631-0.732-1.631-1.634c0-0.896,0.728-1.628,1.631-1.628h2.49v-2.777H74.811v26.603l12.153,52.131l13.798,31.643
		c0.077,0.168,0.101,0.355,0.101,0.537h3.808v3.981H84.313v-3.981h4.858l-21.31-30.396h-7.269l-21.042,30.396h4.679v3.981H23.872
		v-3.981h3.717c0-0.182,0.028-0.369,0.101-0.537l13.787-31.624l10.534-52.122v-17.604c-4.324,1.446-8.903,2.734-13.754,3.817v2.146
		c0,0.598-0.488,1.088-1.09,1.088h-5.428c-0.603,0-1.09-0.49-1.09-1.088v-4.484h-2.49c-0.898,0-1.631-0.729-1.631-1.629
		c0-0.901,0.732-1.634,1.631-1.634h2.49v-1.493h-2.49c-0.898,0-1.631-0.729-1.631-1.624c0-0.901,0.732-1.634,1.631-1.634h2.49
		v-2.502h-4.971c-0.616,0-1.157-0.42-1.309-1.021c-0.154-0.607,0.124-1.237,0.667-1.526l26.983-14.565v-8.724
		c-3.417,0.784-7.005,1.498-10.772,2.11v2.986c0,0.603-0.487,1.092-1.085,1.092H34.73c-0.602,0-1.085-0.489-1.085-1.092v-4.48h-2.49
		c-0.898,0-1.631-0.728-1.631-1.629c0-0.9,0.728-1.629,1.631-1.629h2.49v-1.493h-2.49c-0.898,0-1.631-0.732-1.631-1.634
		c0-0.896,0.728-1.629,1.631-1.629h2.49v-2.235h-3.083c-0.616,0-1.153-0.41-1.309-1.008c-0.159-0.598,0.109-1.223,0.644-1.526
		l22.117-12.503v-1.461c0-0.266,0.077-0.518,0.224-0.742l9.817-14.859v-8.644c0-0.747,0.611-1.363,1.362-1.363
		c0.745,0,1.352,0.616,1.352,1.363v8.644l9.822,14.859c0.147,0.225,0.224,0.481,0.224,0.742v1.223l14.687,8.434
		c13.997-8.647,20.731-17.632,23.088-21.328v-1.587h-1.765c-0.642,0-1.152-0.514-1.152-1.148s0.511-1.152,1.152-1.152h1.765v-1.06
		h-1.765c-0.062,0-0.1-0.061-0.154-0.07c-0.075,0.023-0.138,0.042-0.215,0.061l-0.037-0.158c-0.416-0.173-0.747-0.509-0.747-0.985
		c0-0.312,0.13-0.592,0.331-0.803l-0.091-0.378c0.912-0.21,1.773-0.457,2.677-0.681v-0.878h-2.185c-0.437,0-0.812-0.299-0.924-0.719
		c-0.11-0.42,0.077-0.863,0.459-1.078l15.656-8.854v-1.036c0-0.187,0.059-0.373,0.164-0.531l6.949-10.521v-6.118
		c0-0.527,0.434-0.957,0.959-0.957c0.532,0,0.961,0.43,0.961,0.957v6.118l6.954,10.521c0.1,0.158,0.161,0.345,0.161,0.531v0.868
		l2.807,1.61c21.907-8.676,39.131-19.509,52.598-30.724H45.955c-2.163,0-3.928-1.755-3.928-3.925v-47.506
		c0-2.166,1.765-3.921,3.928-3.921h9.645v-49.417c0-1.281,0.627-2.476,1.673-3.213l38.251-26.829c1.204-0.84,2.763-0.94,4.063-0.278
		c1.304,0.684,2.116,2.021,2.116,3.484v19.289l32.063-22.5c1.204-0.842,2.772-0.94,4.072-0.277c1.295,0.684,2.107,2.021,2.107,3.483
		v19.289l32.074-22.5c1.195-0.842,2.761-0.94,4.07-0.277c1.295,0.684,2.11,2.021,2.11,3.484v48.83h5.638l6.886-89.685
		c0.159-2.046,1.869-3.624,3.911-3.624h21.877c2.065,0,3.771,1.601,3.911,3.657l6.03,89.652h11.054c2.166,0,3.92,1.752,3.92,3.922
		V270.49z M54.724,396.141c0.012,0.02,0.025,0.028,0.04,0.038h17.229c0.028-0.075,0.037-0.159,0.082-0.225
		c0.005-0.023,0.019-0.023,0.028-0.042v-0.77l-8.684-13.147l-8.688,13.147v0.998H54.724z M60.938,452.352l2.404,3.463l4.616-6.655
		C65.712,450.27,63.375,451.344,60.938,452.352z M69.383,446.691H57.008l3.018,4.345C63.314,449.668,66.438,448.217,69.383,446.691z
		 M64.66,457.719l7.442,10.715v-21.412c-0.005,0.005-0.01,0.005-0.014,0.01L64.66,457.719z M72.102,443.195v-0.028l-8.56-10.948
		l-8.779,11.233l0.357,0.527h16.431L72.102,443.195z M56.537,419.739l7.005,8.955l8.496-10.874l-2.312-2.202
		C65.668,417.106,61.281,418.497,56.537,419.739z M68.464,414.413l-3.325-3.183h-3.689l-6.618,6.319l0.653,0.84
		C60.149,417.195,64.469,415.855,68.464,414.413z M72.102,439.639v-18.37l-7.183,9.185L72.102,439.639z M72.102,414.884v-0.158
		c-0.042,0.019-0.082,0.037-0.115,0.051L72.102,414.884z M72.102,413.037v-1.807h-3.823l2.459,2.348
		C71.208,413.401,71.642,413.218,72.102,413.037z M72.102,408.518v-7.457l-7.241,6.907l0.574,0.55H72.102L72.102,408.518z
		 M71.792,398.354H54.796l8.499,8.115L71.792,398.354z M54.724,408.518h6.424l0.574-0.541l-6.998-6.684V408.518z M54.724,414.647
		l3.58-3.417h-3.58V414.647z M54.724,439.975l7.437-9.512l-7.437-9.512V439.975z M54.724,453.108
		c1.094-0.401,2.188-0.793,3.25-1.218l-3.25-4.677V453.108z M54.724,468.224l7.29-10.505l-3.127-4.504
		c-1.356,0.537-2.747,1.064-4.163,1.572V468.224z M54.724,472.093h17.378v-0.182c-0.191-0.079-0.364-0.187-0.493-0.369
		l-8.268-11.919l-8.081,11.648c-0.135,0.196-0.325,0.304-0.53,0.383v0.438H54.724z M53.287,480.713h20.465l-1.376-5.895H54.481
		L53.287,480.713z M75.453,494.71l-11.833-5.89l-11.934,5.88l12.043,5.013L75.453,494.71z M49.033,508.329l15.317,6.907
		l14.557-6.874l-15.168-6.306L49.033,508.329z M63.628,486.393l7.115-3.5h-14.16L63.628,486.393z M35.729,408.518h16.286v-9.208
		L35.729,408.518z M43.369,415.636c0.301,0,0.542-0.243,0.542-0.537c0-0.299-0.245-0.551-0.542-0.551H31.15
		c-0.301,0-0.542,0.252-0.542,0.551c0,0.294,0.245,0.537,0.542,0.537H43.369z M43.915,419.85c0-0.303-0.245-0.551-0.542-0.551
		H31.155c-0.301,0-0.542,0.248-0.542,0.551c0,0.299,0.245,0.537,0.542,0.537h12.218C43.67,420.387,43.915,420.144,43.915,419.85z
		 M52.015,419.244v-8.014H41.243v2.235h2.125c0.898,0,1.631,0.729,1.631,1.634c0,0.896-0.728,1.624-1.631,1.624h-2.125v1.498h2.125
		c0.898,0,1.631,0.729,1.631,1.629c0,0.351-0.135,0.663-0.324,0.929C47.203,420.298,49.648,419.794,52.015,419.244z M31.055,443.979
		h20.96v-11.312L31.055,443.979z M40.382,451.363c0.301,0,0.546-0.243,0.546-0.537s-0.25-0.541-0.546-0.541H28.168
		c-0.301,0-0.546,0.247-0.546,0.541s0.25,0.537,0.546,0.537H40.382z M40.382,456.123c0.301,0,0.546-0.252,0.546-0.546
		c0-0.299-0.25-0.541-0.546-0.541H28.168c-0.301,0-0.546,0.247-0.546,0.541c0,0.299,0.25,0.546,0.546,0.546H40.382z M52.015,454.06
		v-7.369H38.261v2.497h2.121c0.898,0,1.631,0.737,1.631,1.638s-0.728,1.624-1.631,1.624h-2.121v1.498h2.121
		c0.898,0,1.631,0.729,1.631,1.629c0,0.896-0.728,1.629-1.631,1.629h-2.121v0.729C43.117,456.836,47.695,455.535,52.015,454.06z
		 M50.874,492.68l10.303-5.083l-8.429-4.2L50.874,492.68z M48.106,506.369l12.832-5.479L50.122,496.4L48.106,506.369z
		 M44.44,524.491h0.306l17.023-8.041l-14.394-6.482L44.44,524.491z M57.291,527.211H43.666l-12.66,29.039h6.179L57.291,527.211z
		 M79.59,524.491l-15.222-6.865l-14.543,6.865H79.59z M84.78,527.211h-13.6l20.353,29.039h5.913L84.78,527.211z M80.575,509.976
		l-13.625,6.432l16.9,7.621L80.575,509.976z M77.378,496.246l-10.849,4.625l13.206,5.488L77.378,496.246z M74.405,483.5l-8.34,4.107
		l10.515,5.241L74.405,483.5z M238.609,286.788c-5.194,10.332-14.279,24.861-29.258,39.656h15.065
		c6.81-8.065,12.405-16.083,16.874-23.41v-16.242h-2.682V286.788z M205.954,326.444c15.432-14.795,24.78-29.459,30.138-39.941
		c-1.473-0.564-2.513-1.97-2.513-3.641v-23.526h-10.792c-2.063,0-3.769-1.601-3.909-3.664l-6.03-89.643h-14.573l-6.886,89.685
		c-0.159,2.046-1.869,3.622-3.918,3.622h-13.206c-2.166,0-3.918-1.752-3.918-3.918v-45.21l-32.072,22.5
		c-1.195,0.847-2.763,0.94-4.062,0.277c-1.295-0.684-2.117-2.021-2.117-3.484v-19.289l-32.065,22.5
		c-1.195,0.847-2.761,0.94-4.061,0.278c-1.305-0.684-2.119-2.021-2.119-3.484v-19.289l-30.398,21.329v51.326
		c0,2.165-1.755,3.92-3.918,3.92h-9.654v39.661h156.074V326.444z M141.747,365.619v0.485c0.168-0.07,0.331-0.131,0.497-0.195
		L141.747,365.619z M150.838,376.573h-4.187c-0.215,0-0.387,0.172-0.387,0.383c0,0.214,0.172,0.387,0.387,0.387h1.778
		C149.242,377.09,150.04,376.838,150.838,376.573z M141.747,396.151c1.502-1.718,2.734-3.352,3.747-4.877l-3.747-2.059V396.151z
		 M112.428,410.721c-0.861,1.372-2.256,3.454-4.209,5.993c6.849-2.343,12.582-4.985,17.38-7.738v-9.643h-9.74v1.773h1.503
		c0.64,0,1.155,0.519,1.155,1.153s-0.516,1.152-1.155,1.152h-1.503v1.06h1.503c0.64,0,1.155,0.509,1.155,1.153
		c0,0.639-0.516,1.147-1.155,1.147h-1.503v3.174c0,0.43-0.343,0.766-0.768,0.766h-2.663V410.721z M117.361,406.007
		c0.215,0,0.385-0.168,0.385-0.382c0-0.215-0.17-0.383-0.385-0.383h-8.65c-0.21,0-0.388,0.168-0.388,0.383
		c0,0.214,0.178,0.382,0.388,0.382H117.361z M117.361,402.643c0.215,0,0.385-0.168,0.385-0.383s-0.17-0.383-0.385-0.383h-8.65
		c-0.21,0-0.388,0.168-0.388,0.383s0.178,0.383,0.388,0.383H117.361z M125.593,397.411v-8.018l-14.843,8.018H125.593z
		 M124.786,431.905l7.297-3.598l-5.969-2.973L124.786,431.905z M139.602,365.106h-12.039l4.611,4.396
		c1.477-0.489,2.94-0.979,4.377-1.488L139.602,365.106z M140.997,423.434l-0.975-4.182h-12.674l-0.847,4.182H140.997z
		 M128.835,424.965l4.989,2.492l5.043-2.492H128.835z M133.761,389.084l-6.221,7.958l0.257,0.368h11.642l0.387-0.551v-0.019
		L133.761,389.084z M139.826,394.344v-13.016l-5.085,6.506L139.826,394.344z M134.55,407.147l5.276,7.588v-14.053
		c-0.658,0.626-1.36,1.256-2.093,1.891L134.55,407.147z M137.088,400.799l1.018-1.471h-8.97l3.512,5.064
		C134.272,403.198,135.745,401.994,137.088,400.799z M132.786,387.834l-5.27-6.739v13.479L132.786,387.834z M127.521,399.708v8.135
		c1.379-0.846,2.656-1.694,3.876-2.558L127.521,399.708z M127.521,409.811v4.774l5.164-7.448l-0.306-0.438
		C130.875,407.744,129.259,408.785,127.521,409.811z M127.521,417.008v0.322h12.305v-0.136c-0.133-0.052-0.261-0.126-0.343-0.257
		l-5.864-8.447l-5.727,8.251C127.796,416.882,127.664,416.957,127.521,417.008z M139.826,374.22h-2.705l2.705,2.581V374.22z
		 M134.895,374.22h-2.616l-4.684,4.476l6.17,7.896l6.018-7.7L134.895,374.22z M130.053,374.22h-2.532v2.422L130.053,374.22z
		 M132.457,371.928c-0.362,0.117-0.712,0.248-1.085,0.364h0.693L132.457,371.928z M131.917,437.725l-7.661-3.183l-1.431,7.057
		L131.917,437.725z M123.486,442.99l4.894,2.203c2.772-1.886,5.244-3.855,7.432-5.853l-1.906-0.794L123.486,442.99z
		 M122.315,444.157l-1.073,5.307c1.993-1.051,3.878-2.134,5.628-3.263L122.315,444.157z M120.833,451.465l-0.602,2.968h0.217
		l12.057-5.685l-3.943-1.773C126.2,448.534,123.645,450.042,120.833,451.465z M134.331,447.88l10.31-4.872l-7.232-2.996
		c-2.166,2.025-4.597,4.027-7.341,5.945L134.331,447.88z M138.754,436.479l-2.882,1.228l1.181,0.495
		C137.651,437.623,138.211,437.043,138.754,436.479z M141.198,433.767c0.182-0.219,0.355-0.438,0.53-0.657l-7.908-3.939
		l-8.455,4.168l8.527,3.542L141.198,433.767z M142.722,431.886c0.068-0.088,0.119-0.163,0.187-0.256l-1.452-6.231l-5.909,2.908
		L142.722,431.886z M139.826,369.404c-1.271,0.472-2.609,0.9-3.904,1.344l-1.223,1.162l0.406,0.383h4.721V369.404z M141.747,372.292
		h11.642l-8.478-4.863c-1.045,0.411-2.093,0.821-3.157,1.224v3.64H141.747z M127.521,363.538c0.009,0.009,0.019,0.019,0.023,0.027
		h12.204c0.026-0.056,0.031-0.111,0.063-0.168c0.004-0.009,0.009-0.014,0.019-0.019v-0.551l-6.156-9.306l-6.148,9.306v0.71H127.521z
		 M127.521,367.182v3.813c1.008-0.309,2.025-0.611,3.015-0.934L127.521,367.182z M123.123,372.292
		c0.833-0.233,1.654-0.485,2.476-0.728v-5.787l-11.537,6.515H123.123z M113.44,377.342h6.037c0.21,0,0.383-0.173,0.383-0.387
		c0-0.211-0.172-0.383-0.383-0.383h-2.991C115.478,376.838,114.47,377.09,113.44,377.342z M119.477,380.708
		c0.21,0,0.383-0.178,0.383-0.388c0-0.215-0.172-0.387-0.383-0.387h-8.655c-0.215,0-0.383,0.172-0.383,0.387
		c0,0.21,0.168,0.388,0.383,0.388H119.477z M91.041,405.27l5.979,3.436c0.532,0.299,0.794,0.929,0.637,1.521
		c-0.159,0.593-0.698,1.003-1.304,1.003h-4.527v2.235h2.126c0.898,0,1.631,0.729,1.631,1.634c0,0.896-0.726,1.624-1.631,1.624
		h-2.126v1.498h2.126c0.898,0,1.631,0.729,1.631,1.629c0,0.182-0.049,0.351-0.101,0.514c3.575-0.85,6.919-1.773,10.046-2.763
		c2.404-2.974,4.105-5.433,5.181-7.095c-0.145-0.14-0.236-0.331-0.236-0.551v-3.168h-1.757c-0.637,0-1.153-0.514-1.153-1.153
		s0.516-1.152,1.153-1.152h1.757v-1.06h-1.757c-0.637,0-1.153-0.519-1.153-1.153s0.516-1.152,1.153-1.152h1.757v-1.773h-3.521
		c-0.438,0-0.821-0.299-0.926-0.719c-0.11-0.43,0.086-0.878,0.471-1.083l19.107-10.314V374.23h-0.558
		c-1.837,0.536-3.657,1.087-5.54,1.591c0.625,0.01,1.132,0.519,1.132,1.144c0,0.635-0.516,1.153-1.15,1.153h-1.505v1.059h1.505
		c0.635,0,1.15,0.519,1.15,1.153s-0.516,1.147-1.15,1.147h-1.505v3.174c0,0.42-0.34,0.775-0.77,0.775h-3.848
		c-0.138,0-0.266-0.057-0.38-0.117C109.957,389.617,103.28,397.56,91.041,405.27z M93.951,419.299H81.732
		c-0.301,0-0.542,0.243-0.542,0.542c0,0.303,0.245,0.541,0.542,0.541h12.218c0.301,0,0.542-0.243,0.542-0.541
		C94.497,419.542,94.251,419.299,93.951,419.299z M93.951,415.636c0.301,0,0.542-0.243,0.542-0.537c0-0.299-0.245-0.551-0.542-0.551
		H81.732c-0.301,0-0.542,0.252-0.542,0.551c0,0.294,0.245,0.537,0.542,0.537H93.951z M88.395,406.875
		c-0.938,0.551-1.897,1.102-2.891,1.643h5.748L88.395,406.875z M74.811,408.518h7.332c1.638-0.835,3.192-1.685,4.679-2.538
		l-12.011-6.894V408.518z M74.811,411.935c0.546-0.233,1.066-0.472,1.591-0.705h-1.591V411.935z M74.811,429.31l11.829,6.483
		c7.355-5.592,12.956-11.234,17.009-15.952c-3.652,1.073-7.598,2.062-11.824,2.949v3.155c0,0.602-0.487,1.092-1.09,1.092h-5.428
		c-0.602,0-1.09-0.49-1.09-1.092v-4.48h-2.49c-0.898,0-1.631-0.729-1.631-1.629c0-0.896,0.728-1.629,1.631-1.629h2.49v-1.493h-2.49
		c-0.898,0-1.631-0.733-1.631-1.634c0-0.896,0.728-1.629,1.631-1.629h2.49v-2.235h-4.062c-1.706,0.816-3.484,1.614-5.349,2.398
		v15.695H74.811z M74.811,443.69c3.397-1.988,6.534-4.042,9.425-6.123l-9.425-5.162V443.69z M95.925,443.979l-10.179-5.572
		c-2.581,1.886-5.353,3.752-8.34,5.572H95.925z M98.027,451.637c0.301,0,0.542-0.242,0.542-0.541c0-0.294-0.245-0.536-0.542-0.536
		H85.809c-0.301,0-0.542,0.242-0.542,0.536c0,0.299,0.245,0.541,0.542,0.541H98.027z M98.027,456.389
		c0.301,0,0.542-0.248,0.542-0.542c0-0.303-0.245-0.546-0.542-0.546H85.809c-0.301,0-0.542,0.243-0.542,0.546
		c0,0.304,0.245,0.542,0.542,0.542H98.027z M119.053,450.579l6.541-32.385v-7.268c-5.262,2.903-11.602,5.662-19.193,8.065
		c-4.1,5.021-10.106,11.336-18.265,17.623l13.745,7.532c0.539,0.299,0.816,0.924,0.665,1.526c-0.154,0.598-0.698,1.018-1.314,1.018
		h-5.334v2.776h2.13c0.898,0,1.626,0.729,1.626,1.629s-0.728,1.629-1.626,1.629h-2.13v1.498h2.13c0.898,0,1.626,0.724,1.626,1.629
		c0,0.896-0.728,1.634-1.626,1.634h-2.13v0.84C104.972,456.389,112.628,453.714,119.053,450.579z M129.341,456.356h-9.654
		l-8.965,20.572h4.373L129.341,456.356z M145.13,454.433l-10.781-4.863l-10.298,4.863H145.13z M148.805,456.356h-9.633
		l14.417,20.572h4.187L148.805,456.356z M145.828,444.157l-9.651,4.555l11.976,5.396L145.828,444.157z M143.56,434.43L142.215,435
		c-1.095,1.288-2.294,2.567-3.584,3.851l6.599,2.739L143.56,434.43z M152.616,410.917h-0.551c-0.424,0-0.77-0.346-0.77-0.774v-3.165
		h-1.757c-0.642,0-1.158-0.518-1.158-1.157c0-0.635,0.516-1.152,1.158-1.152h1.757v-1.06h-1.757c-0.642,0-1.158-0.514-1.158-1.153
		c0-0.635,0.516-1.152,1.158-1.152h1.757v-1.96h-9.542v18.841l2.655,11.411C149.886,421.708,151.902,414.52,152.616,410.917z
		 M149.533,405.434c-0.214,0-0.382,0.168-0.382,0.383c0,0.214,0.168,0.387,0.382,0.387h8.655c0.21,0,0.38-0.173,0.38-0.387
		c0-0.215-0.17-0.383-0.38-0.383H149.533z M149.533,402.069c-0.214,0-0.382,0.173-0.382,0.383c0,0.215,0.168,0.387,0.382,0.387
		h8.655c0.21,0,0.38-0.172,0.38-0.387c0-0.21-0.17-0.383-0.38-0.383H149.533z M147.013,392.104
		c-1.078,1.667-2.399,3.449-4.046,5.307h13.735L147.013,392.104z M148.758,385.267c-0.205-0.136-0.345-0.359-0.345-0.625v-3.174
		h-1.762c-0.642,0-1.158-0.514-1.158-1.148s0.516-1.152,1.158-1.152l-0.336-1.148c0.026-0.009,0.049-0.014,0.072-0.023
		c-0.497-0.13-0.894-0.504-0.894-1.04c0-0.635,0.516-1.153,1.158-1.153h1.762v-1.582h-6.667v12.812l4.774,2.613
		C147.515,387.983,148.248,386.5,148.758,385.267z M148.185,379.933c-0.406,0.116-0.793,0.261-1.2,0.382l-0.109-0.382h-0.224
		c-0.215,0-0.387,0.172-0.387,0.387c0,0.21,0.172,0.388,0.387,0.388h8.655c0.21,0,0.382-0.178,0.382-0.388
		c0-0.215-0.172-0.387-0.382-0.387H148.185z M217.395,334.284H200.85c-13.595,11.715-31.136,23.126-53.641,32.25l10.256,5.89
		c0.378,0.215,0.565,0.663,0.455,1.083c-0.114,0.42-0.497,0.709-0.926,0.709h-3.208v1.41
		C181.132,366.151,201.921,350.572,217.395,334.284z M241.291,307.495c-3.855,6.049-8.41,12.461-13.763,18.949h13.763V307.495z
		 M255.653,274.074h-11.586c-0.401,1.171-1.018,2.84-1.86,4.868h3.003c0.009-0.01,0.028-0.01,0.037,0h0.049
		c2.163,0,3.918,1.755,3.918,3.92c0,0.275-0.028,0.532-0.077,0.784v5.209C252.44,282.237,254.547,277.038,255.653,274.074z
		 M241.426,274.074v0.327c0.042-0.11,0.08-0.22,0.114-0.327H241.426z M164.158,269.215v27.76c0,2.166-1.755,3.921-3.92,3.921
		h-30.075c-2.166,0-3.918-1.755-3.918-3.921v-27.76c0-2.17,1.752-3.925,3.918-3.925h30.075
		C162.403,265.291,164.158,267.045,164.158,269.215z M156.314,273.138h-22.222v19.907h22.222V273.138z M134.813,98.324
		c1.418-1.428,2.924-3.111,4.77-4.753c1.802-1.694,3.78-3.456,6.006-5.148c2.112-1.815,4.642-3.351,7.078-5.076
		c2.613-1.505,5.208-3.169,8.039-4.45c2.828-1.281,5.633-2.628,8.62-3.47c1.481-0.438,2.886-1.027,4.384-1.36
		c1.489-0.306,2.966-0.593,4.434-0.894c2.868-0.789,5.85-0.703,8.597-1.015l2.056-0.161c0.693,0.037,1.368,0.072,2.042,0.105
		c1.333,0.072,2.627,0.138,3.904,0.205c1.762-0.028,3.475,0.273,5.08,0.579l-4.35,23.148c1.51-0.1,33.363-27.087,33.363-27.087
		l-20.68-40.377l-4.663,24.775c-0.217,0.014-0.432,0.019-0.651,0.023c-2.81,0.143-5.825,0.133-9.012,0.831
		c-1.583,0.287-3.208,0.56-4.866,0.866c-0.828,0.138-1.659,0.292-2.49,0.448c-0.819,0.259-1.65,0.506-2.49,0.766
		c-3.323,1.099-6.798,1.878-10.051,3.535c-1.636,0.737-3.283,1.489-4.933,2.248c-1.629,0.779-3.134,1.796-4.697,2.7
		c-3.16,1.727-5.988,3.939-8.76,6.051c-2.772,2.093-5.194,4.525-7.584,6.735c-2.203,2.427-4.44,4.611-6.224,6.982
		c-1.893,2.275-3.526,4.524-4.963,6.644c-1.482,2.072-2.63,4.123-3.715,5.866c-0.99,1.818-1.902,3.351-2.527,4.69
		c-1.339,2.618-1.941,4.187-1.941,4.187s0.929-1.407,2.795-3.638C132.274,101.131,133.5,99.833,134.813,98.324z M488.368,251.646
		c-0.158,0.674-0.312,1.33-0.476,1.983c-0.309,1.3-0.616,2.562-0.905,3.804c-0.299,1.741-0.901,3.37-1.499,4.889l-21.977-8.473
		c-0.168,1.505,20.591,37.727,20.591,37.727l43.46-13.017l-23.518-9.073c0.033-0.215,0.061-0.429,0.099-0.644
		c0.363-2.791,0.924-5.754,0.821-9.012c0.004-1.612,0.027-3.26,0.032-4.942c0.01-0.838,0.015-1.683,0.01-2.53
		c-0.099-0.849-0.201-1.71-0.304-2.585c-0.48-3.467-0.606-7.024-1.656-10.522c-0.425-1.741-0.864-3.493-1.312-5.262
		c-0.471-1.741-1.194-3.407-1.801-5.108c-1.125-3.423-2.791-6.606-4.359-9.712c-1.559-3.106-3.51-5.925-5.25-8.679
		c-1.983-2.604-3.729-5.199-5.736-7.383c-1.895-2.275-3.809-4.287-5.633-6.083c-1.77-1.832-3.58-3.333-5.092-4.719
		c-1.605-1.3-2.949-2.48-4.154-3.334c-2.333-1.792-3.766-2.672-3.766-2.672s1.213,1.167,3.07,3.407
		c0.967,1.089,2.021,2.522,3.263,4.09c1.148,1.655,2.539,3.442,3.817,5.554c1.335,2.079,2.707,4.34,3.977,6.839
		c1.4,2.408,2.45,5.171,3.696,7.88c1.018,2.842,2.175,5.696,2.917,8.711c0.742,3.012,1.563,6.018,1.848,9.105
		c0.164,1.533,0.49,3.024,0.547,4.553c0.032,1.521,0.047,3.031,0.074,4.522c0.252,2.959-0.364,5.878-0.56,8.641L488.368,251.646z
		 M314.851,274.949c0.667,0.086,1.33,0.182,2.021,0.273l1.983,0.546c2.646,0.812,5.591,1.284,8.266,2.586
		c1.381,0.569,2.781,1.12,4.19,1.698c1.4,0.607,2.675,1.447,4.047,2.151c2.781,1.382,5.288,3.234,7.826,5.013
		c2.544,1.778,4.798,3.893,7.075,5.866c2.082,2.138,4.275,4.117,6.017,6.292c1.871,2.086,3.486,4.182,4.942,6.179
		c1.512,1.956,2.679,3.888,3.804,5.554c1.017,1.728,1.974,3.229,2.646,4.519c1.41,2.538,2.063,4.098,2.063,4.098
		s-0.299-1.662-1.125-4.485c-0.364-1.429-0.976-3.104-1.614-5.073c-0.742-1.913-1.499-4.153-2.562-6.459
		c-1.022-2.348-2.208-4.873-3.65-7.449c-1.307-2.669-3.099-5.227-4.816-8.018c-1.937-2.613-3.864-5.451-6.197-8.032
		c-2.334-2.581-4.7-5.281-7.486-7.565c-1.367-1.176-2.66-2.462-4.111-3.526c-1.489-1.052-2.964-2.093-4.434-3.122
		c-2.89-2.236-6.161-3.641-9.218-5.337c-0.784-0.411-1.55-0.817-2.301-1.213c-0.789-0.313-1.577-0.619-2.366-0.905
		c-1.568-0.607-3.108-1.174-4.62-1.753c-3.001-1.271-5.965-1.82-8.7-2.49c-0.215-0.044-0.424-0.091-0.635-0.145l0.023-25.205
		l-27.813,35.838c0,0,26.288,32.424,27.757,32.807l0.019-23.55c1.634-0.005,3.37,0.019,5.102,0.373
		C312.237,274.602,313.521,274.774,314.851,274.949z"/>
</g>
<g>
</g>
<g>
</g>
<g>
</g>
<g>
</g>
<g>
</g>
<g>
</g>
<g>
</g>
<g>
</g>
<g>
</g>
<g>
</g>
<g>
</g>
<g>
</g>
<g>
</g>
<g>
</g>
<g>
</g>
</svg>
