<?xml version="1.0" encoding="iso-8859-1"?>
<!-- Generator: Adobe Illustrator 16.0.0, SVG Export Plug-In . SVG Version: 6.00 Build 0)  -->
<!DOCTYPE svg PUBLIC "-//W3C//DTD SVG 1.1//EN" "http://www.w3.org/Graphics/SVG/1.1/DTD/svg11.dtd">
<svg version="1.1" id="Capa_1" xmlns="http://www.w3.org/2000/svg" xmlns:xlink="http://www.w3.org/1999/xlink" x="0px" y="0px"
	 width="194.658px" height="194.659px" viewBox="0 0 194.658 194.659" style="enable-background:new 0 0 194.658 194.659;"
	 xml:space="preserve">
<g>
	<path d="M194.292,171.33c-10.686-25.771-21.789-52.143-37.576-75.266c-1.434-2.098-3.999-2.951-6.306-1.653
		c-11.969,6.735-20.3,16.811-29.409,26.861c-4.899,5.404-11.137,14.093-18.135,6.717c-4.864-5.128-8.979-10.855-12.767-16.801
		c-13.512-21.211-23.126-45.713-46.72-57.66c-18.743-9.49-23.897,30.868-26.851,40.738c-4.29,14.336-7.601,28.927-11.807,43.292
		c-3.234,11.049-6.995,23.631-2.986,34.922c0.571,1.608,1.751,2.442,3.016,2.67c3.847,3.613,14.355,3.178,18.92,4.003
		c15.429,2.79,30.89,1.167,46.413-0.074c38.799-3.103,79.941-5.618,118.478,0.302c3.694,0.567,6.1-2.456,5.915-5.235
		C194.749,173.346,194.735,172.399,194.292,171.33z M86.635,167.744c-17.365,0.669-34.673,3.71-52.083,3.271
		c-7.899-0.199-17.407-3.388-25.425-1.595c-2.137-11.963,3.679-25.967,7.071-37.185c4.036-13.348,6.795-27.037,10.63-40.454
		c1.814-6.346,3.669-12.685,5.841-18.918c0.762-2.447,1.516-4.897,2.262-7.349c2.712-8.86,13.441,0.932,15.507,2.651
		c9.575,7.968,15.871,19.919,21.952,30.57c6.929,12.138,19.016,40.465,34.879,42.979c6.942,1.101,13.027-6.684,17.242-10.863
		c9.075-8.999,16.28-19.026,26.832-26.143c12.853,19.795,22.607,41.738,31.688,63.51
		C152.431,161.593,117.157,166.569,86.635,167.744z"/>
	<path d="M183.547,52.963c-18.505-9.359-41.483-14.33-61.404-20.056c-21.961-6.312-43.802-19.588-67.179-18.914
		c-3.12,0.09-2.939,4.349,0,4.715c20.487,2.547,38.535,12.883,57.864,19.414c1.555,1.457,2.747,3.026,2.981,5.251
		c0.184,1.748-0.654,3.253-1.041,4.866c-1.554,0.061-3.093,0.166-4.583,0.375c-1.284,0.18-4.223,0.809-5.745,2.077
		c-4.279,1.616-7.702,4.502-9.861,8.807c-0.666,1.329-0.472,2.6,0.159,3.58c-0.343,0.367-0.554,0.895-0.526,1.597
		c0.279,6.879,2.908,15.795,7.269,21.214c1.201,1.493,3.256,1.305,4.718,0.318c5.245,1.549,11.21,1.897,16.57,2.377
		c0.622,0.056,1.155-0.047,1.613-0.249c1.519,1.053,3.653,1.023,4.83-1.166c1.331-2.477,2.544-5.019,3.723-7.577
		c3.406-4.34,6.023-9.542,5.834-13.792c-0.065-1.464-0.757-2.486-1.678-3.132c0.033-0.383,0.008-0.775-0.116-1.162
		c-1.282-4.012-4.818-7.505-7.542-10.615c-0.058-0.066-0.124-0.09-0.185-0.145c-0.567-1.304-1.979-2.038-3.338-2.151
		c-1.605-0.134-3.265-0.235-4.937-0.311c0.646-1.812,0.733-3.912,0.357-5.656c-0.167-0.775-0.457-1.477-0.813-2.134
		c19.855,5.527,40.898,16.844,61.435,18.345C185.063,59.063,186.294,54.352,183.547,52.963z M125.913,56.022
		c0.517-0.028,1.028-0.186,1.518-0.399c0.41,0.819,0.806,1.644,1.145,2.483c0.692,1.714,1.046,3.532,1.711,5.244
		c0.022,0.057,0.062,0.1,0.085,0.155c-4.108-1.862-9.616-1.299-14.035-1.189c-5.022,0.126-10.215,0.051-15.141,1.143
		c-0.773,0.172-1.545,0.918-1.703,1.703c0.074,0.038,0.104,0.112,0.163,0.162c-0.088,0.031-0.162,0.059-0.223,0.124
		c-0.113-0.256-0.242-0.504-0.353-0.762c0.65-0.26,1.242-0.759,1.678-1.578c1.711-3.227,3.765-6.382,6.271-9.079
		c2.008,0.656,4.842,1.327,5.121,1.353C116.661,55.804,121.382,56.27,125.913,56.022z"/>
</g>
<g>
</g>
<g>
</g>
<g>
</g>
<g>
</g>
<g>
</g>
<g>
</g>
<g>
</g>
<g>
</g>
<g>
</g>
<g>
</g>
<g>
</g>
<g>
</g>
<g>
</g>
<g>
</g>
<g>
</g>
</svg>
