<?xml version="1.0" encoding="iso-8859-1"?>
<!-- Generator: Adobe Illustrator 16.0.0, SVG Export Plug-In . SVG Version: 6.00 Build 0)  -->
<!DOCTYPE svg PUBLIC "-//W3C//DTD SVG 1.1//EN" "http://www.w3.org/Graphics/SVG/1.1/DTD/svg11.dtd">
<svg version="1.1" id="Capa_1" xmlns="http://www.w3.org/2000/svg" xmlns:xlink="http://www.w3.org/1999/xlink" x="0px" y="0px"
	 width="119.427px" height="119.427px" viewBox="0 0 119.427 119.427" style="enable-background:new 0 0 119.427 119.427;"
	 xml:space="preserve">
<g>
	<g>
		<path d="M86.834,88.214H67V69.047c0-0.829-0.671-1.5-1.5-1.5H45.667V48.381c0-0.829-0.671-1.5-1.5-1.5H24.333V27.714
			c0-0.829-0.671-1.5-1.5-1.5H1.5c-0.829,0-1.5,0.671-1.5,1.5s0.671,1.5,1.5,1.5h19.833v19.167c0,0.829,0.671,1.5,1.5,1.5h19.833
			v19.167c0,0.829,0.671,1.5,1.5,1.5h19.833v19.167c0,0.829,0.671,1.5,1.5,1.5h19.833v19.167c0,0.829,0.671,1.5,1.5,1.5
			s1.5-0.671,1.5-1.5V89.714C88.334,88.885,87.662,88.214,86.834,88.214z"/>
		<path d="M115.167,46.54c-10.21-2.73-21.147-3.181-31.388-0.5c-0.107-0.083-0.211-0.169-0.323-0.249
			c-4.593-3.265-8.466-7.477-12.226-11.736c6.277-2.684,12.928-4.485,19.769-4.841c6.415-0.333,6.448-10.335,0-10
			c-5.868,0.305-11.606,1.447-17.149,3.233c2.331-1.614,4.842-2.857,7.413-3.495c6.257-1.553,3.603-11.196-2.657-9.643
			c-7.213,1.79-14.023,6.866-19.047,12.831c0.064-0.523,0.107-1.053,0.107-1.594c0-7.18-5.821-13.001-13-13.001
			c-7.18,0-13.001,5.821-13.001,13.001s5.821,13,13.001,13c1.986,0,3.861-0.458,5.544-1.255c-0.789,2.589-0.396,5.543,1.946,8.099
			c6.566,7.163,12.744,14.408,20.72,20.079c1.516,1.078,3.333,1.391,5.107,1.151c3.451,1.804,6.778,3.845,9.524,6.575
			c2.963,2.947,3.284,9.207,3.658,13.184c0.717,7.636,12.724,7.706,12,0c-0.591-6.283-1.46-13.23-4.81-18.706
			c-1.483-2.426-3.526-4.473-5.849-6.264c5.808-0.458,11.685,0.154,17.468,1.701C119.463,60.112,122.636,48.536,115.167,46.54z"/>
	</g>
</g>
<g>
</g>
<g>
</g>
<g>
</g>
<g>
</g>
<g>
</g>
<g>
</g>
<g>
</g>
<g>
</g>
<g>
</g>
<g>
</g>
<g>
</g>
<g>
</g>
<g>
</g>
<g>
</g>
<g>
</g>
</svg>
