<?xml version="1.0" encoding="iso-8859-1"?>
<!-- Generator: Adobe Illustrator 18.1.1, SVG Export Plug-In . SVG Version: 6.00 Build 0)  -->
<svg version="1.1" id="Capa_1" xmlns="http://www.w3.org/2000/svg" xmlns:xlink="http://www.w3.org/1999/xlink" x="0px" y="0px"
	 viewBox="0 0 503.984 503.984" style="enable-background:new 0 0 503.984 503.984;" xml:space="preserve">
<g>
	<g>
		<path style="fill:#010002;" d="M497.99,223.449c-5.796-3.43-13.274-1.504-16.704,4.292l-8.462,14.331H348.229
			c-1.886-88.894-42.114-234.054-91.495-234.054c-49.373,0-89.601,145.16-91.495,234.054H31.166l-8.47-14.331
			c-3.43-5.804-10.884-7.722-16.704-4.292c-5.796,3.422-7.722,10.9-4.292,16.696l32.514,55.03c2.276,3.861,6.34,5.991,10.51,5.991
			c2.105,0,4.243-0.545,6.194-1.699c3.26-1.926,5.243-5.154,5.788-8.624h112.451c2.398,11.193,5.885,20.622,10.177,28.686
			l-46.56,18.419l-16.257,61.273l107.98-43.61c1.26,0.35,2.512,0.723,3.796,1.024v35.814h58.249v-36.18
			c1.032-0.26,2.048-0.536,3.064-0.829l107.354,43.772l-16.257-61.273l-46.65-18.249c4.341-8.096,7.852-17.582,10.266-28.848
			h102.965c0.545,3.471,2.528,6.698,5.788,8.624c1.951,1.154,4.081,1.699,6.194,1.699c4.17,0,8.234-2.146,10.51-5.991l32.514-55.03
			C505.712,234.349,503.786,226.871,497.99,223.449z"/>
		<path style="fill:#010002;" d="M195.355,407.675c-6.73,0.065-12.136,5.584-12.071,12.315l0.618,63.907
			c0.065,6.69,5.511,12.071,12.193,12.071c0.041,0,0.081,0,0.122,0c6.73-0.065,12.136-5.584,12.071-12.315l-0.618-63.907
			C207.597,413.015,201.866,407.927,195.355,407.675z"/>
		<path style="fill:#010002;" d="M253.604,407.675c-6.739,0.065-12.144,5.576-12.079,12.315l0.61,63.907
			c0.065,6.69,5.511,12.071,12.193,12.071c0.041,0,0.081,0,0.122,0c6.739-0.065,12.144-5.576,12.079-12.315l-0.61-63.907
			C265.854,413.015,260.465,407.666,253.604,407.675z"/>
		<path style="fill:#010002;" d="M310.504,407.675c-6.739,0.065-12.144,5.576-12.079,12.315l0.61,63.907
			c0.065,6.69,5.511,12.071,12.193,12.071c0.041,0,0.081,0,0.122,0c6.739-0.065,12.144-5.576,12.079-12.315l-0.61-63.907
			C322.754,413.015,317.584,407.666,310.504,407.675z"/>
	</g>
</g>
<g>
</g>
<g>
</g>
<g>
</g>
<g>
</g>
<g>
</g>
<g>
</g>
<g>
</g>
<g>
</g>
<g>
</g>
<g>
</g>
<g>
</g>
<g>
</g>
<g>
</g>
<g>
</g>
<g>
</g>
</svg>
